M48
; DRILL file {KiCad (6.0.9)} date Sun Jan 15 17:57:30 2023
; FORMAT={-:-/ absolute / metric / decimal}
; #@! TF.CreationDate,2023-01-15T17:57:30-06:00
; #@! TF.GenerationSoftware,Kicad,Pcbnew,(6.0.9)
; #@! TF.FileFunction,Plated,1,2,PTH
FMAT,2
METRIC
; #@! TA.AperFunction,Plated,PTH,ComponentDrill
T1C1.000
; #@! TA.AperFunction,Plated,PTH,ComponentDrill
T2C1.020
%
G90
G05
T1
X99.06Y-71.12
X99.06Y-73.66
X99.06Y-76.2
X99.06Y-78.74
X99.06Y-81.28
X99.06Y-106.68
X101.6Y-106.68
X104.14Y-106.68
X106.68Y-88.9
X106.68Y-91.44
X109.22Y-104.14
X109.22Y-106.68
T2
X66.955Y-72.2
X66.955Y-74.74
X66.955Y-77.28
X66.955Y-79.82
X66.955Y-82.36
X66.955Y-84.9
X66.955Y-87.44
X66.955Y-89.98
X66.955Y-92.52
X66.955Y-95.06
X66.955Y-97.6
X66.955Y-100.14
X66.955Y-102.68
X66.955Y-105.22
X66.955Y-107.76
X92.355Y-72.2
X92.355Y-74.74
X92.355Y-77.28
X92.355Y-79.82
X92.355Y-82.36
X92.355Y-84.9
X92.355Y-87.44
X92.355Y-89.98
X92.355Y-92.52
X92.355Y-95.06
X92.355Y-97.6
X92.355Y-100.14
X92.355Y-102.68
X92.355Y-105.22
X92.355Y-107.76
T0
M30
