%TF.GenerationSoftware,KiCad,Pcbnew,(6.0.9)*%
%TF.CreationDate,2023-01-15T17:56:17-06:00*%
%TF.ProjectId,URVBuoyancyEngine,55525642-756f-4796-916e-6379456e6769,rev?*%
%TF.SameCoordinates,Original*%
%TF.FileFunction,Legend,Bot*%
%TF.FilePolarity,Positive*%
%FSLAX46Y46*%
G04 Gerber Fmt 4.6, Leading zero omitted, Abs format (unit mm)*
G04 Created by KiCad (PCBNEW (6.0.9)) date 2023-01-15 17:56:17*
%MOMM*%
%LPD*%
G01*
G04 APERTURE LIST*
%ADD10R,1.700000X1.700000*%
%ADD11O,1.700000X1.700000*%
%ADD12C,3.000000*%
%ADD13R,2.000000X2.000000*%
%ADD14C,2.000000*%
G04 APERTURE END LIST*
%LPC*%
D10*
X106680000Y-88900000D03*
D11*
X106680000Y-91440000D03*
D10*
X99060000Y-81280000D03*
D11*
X99060000Y-71120000D03*
X99060000Y-76200000D03*
X99060000Y-78740000D03*
X99060000Y-73660000D03*
D10*
X109220000Y-104140000D03*
D11*
X109220000Y-106680000D03*
D12*
X67425000Y-68770000D03*
X91935000Y-68770000D03*
X67425000Y-115720000D03*
X91935000Y-115720000D03*
D13*
X92355000Y-107760000D03*
D14*
X92355000Y-105220000D03*
X92355000Y-102680000D03*
X92355000Y-100140000D03*
X92355000Y-97600000D03*
X92355000Y-95060000D03*
X92355000Y-92520000D03*
X92355000Y-89980000D03*
X92355000Y-87440000D03*
X92355000Y-84900000D03*
X92355000Y-82360000D03*
X92355000Y-79820000D03*
X92355000Y-77280000D03*
X92355000Y-74740000D03*
X92355000Y-72200000D03*
X66955000Y-72200000D03*
X66955000Y-74740000D03*
X66955000Y-77280000D03*
X66955000Y-79820000D03*
X66955000Y-82360000D03*
X66955000Y-84900000D03*
X66955000Y-87440000D03*
X66955000Y-89980000D03*
X66955000Y-92520000D03*
X66955000Y-95060000D03*
X66955000Y-97600000D03*
X66955000Y-100140000D03*
X66955000Y-102680000D03*
X66955000Y-105220000D03*
X66955000Y-107760000D03*
D11*
X101600000Y-106680000D03*
D10*
X104140000Y-106680000D03*
D11*
X99060000Y-106680000D03*
M02*
