%TF.GenerationSoftware,KiCad,Pcbnew,(6.0.9)*%
%TF.CreationDate,2023-01-15T17:57:40-06:00*%
%TF.ProjectId,URVBuoyancyEngine,55525642-756f-4796-916e-6379456e6769,rev?*%
%TF.SameCoordinates,Original*%
%TF.FileFunction,Drillmap*%
%TF.FilePolarity,Positive*%
%FSLAX45Y45*%
G04 Gerber Fmt 4.5, Leading zero omitted, Abs format (unit mm)*
G04 Created by KiCad (PCBNEW (6.0.9)) date 2023-01-15 17:57:40*
%MOMM*%
%LPD*%
G01*
G04 APERTURE LIST*
%ADD10C,0.100000*%
%ADD11C,0.200000*%
%ADD12C,0.102000*%
G04 APERTURE END LIST*
D10*
X13462000Y-8890000D02*
G75*
G03*
X13462000Y-8890000I-1016000J0D01*
G01*
X13786000Y-9144000D02*
G75*
G03*
X13786000Y-9144000I-5150000J0D01*
G01*
D11*
D10*
X9856000Y-7062000D02*
X9956000Y-7162000D01*
X9956000Y-7062000D02*
X9856000Y-7162000D01*
X9856000Y-7316000D02*
X9956000Y-7416000D01*
X9956000Y-7316000D02*
X9856000Y-7416000D01*
X9856000Y-7570000D02*
X9956000Y-7670000D01*
X9956000Y-7570000D02*
X9856000Y-7670000D01*
X9856000Y-7824000D02*
X9956000Y-7924000D01*
X9956000Y-7824000D02*
X9856000Y-7924000D01*
X9856000Y-8078000D02*
X9956000Y-8178000D01*
X9956000Y-8078000D02*
X9856000Y-8178000D01*
X9856000Y-10618000D02*
X9956000Y-10718000D01*
X9956000Y-10618000D02*
X9856000Y-10718000D01*
X10110000Y-10618000D02*
X10210000Y-10718000D01*
X10210000Y-10618000D02*
X10110000Y-10718000D01*
X10364000Y-10618000D02*
X10464000Y-10718000D01*
X10464000Y-10618000D02*
X10364000Y-10718000D01*
X10618000Y-8840000D02*
X10718000Y-8940000D01*
X10718000Y-8840000D02*
X10618000Y-8940000D01*
X10618000Y-9094000D02*
X10718000Y-9194000D01*
X10718000Y-9094000D02*
X10618000Y-9194000D01*
X10872000Y-10364000D02*
X10972000Y-10464000D01*
X10972000Y-10364000D02*
X10872000Y-10464000D01*
X10872000Y-10618000D02*
X10972000Y-10718000D01*
X10972000Y-10618000D02*
X10872000Y-10718000D01*
D12*
X6746500Y-7220000D02*
G75*
G03*
X6746500Y-7220000I-51000J0D01*
G01*
X6746500Y-7474000D02*
G75*
G03*
X6746500Y-7474000I-51000J0D01*
G01*
X6746500Y-7728000D02*
G75*
G03*
X6746500Y-7728000I-51000J0D01*
G01*
X6746500Y-7982000D02*
G75*
G03*
X6746500Y-7982000I-51000J0D01*
G01*
X6746500Y-8236000D02*
G75*
G03*
X6746500Y-8236000I-51000J0D01*
G01*
X6746500Y-8490000D02*
G75*
G03*
X6746500Y-8490000I-51000J0D01*
G01*
X6746500Y-8744000D02*
G75*
G03*
X6746500Y-8744000I-51000J0D01*
G01*
X6746500Y-8998000D02*
G75*
G03*
X6746500Y-8998000I-51000J0D01*
G01*
X6746500Y-9252000D02*
G75*
G03*
X6746500Y-9252000I-51000J0D01*
G01*
X6746500Y-9506000D02*
G75*
G03*
X6746500Y-9506000I-51000J0D01*
G01*
X6746500Y-9760000D02*
G75*
G03*
X6746500Y-9760000I-51000J0D01*
G01*
X6746500Y-10014000D02*
G75*
G03*
X6746500Y-10014000I-51000J0D01*
G01*
X6746500Y-10268000D02*
G75*
G03*
X6746500Y-10268000I-51000J0D01*
G01*
X6746500Y-10522000D02*
G75*
G03*
X6746500Y-10522000I-51000J0D01*
G01*
X6746500Y-10776000D02*
G75*
G03*
X6746500Y-10776000I-51000J0D01*
G01*
X9286500Y-7220000D02*
G75*
G03*
X9286500Y-7220000I-51000J0D01*
G01*
X9286500Y-7474000D02*
G75*
G03*
X9286500Y-7474000I-51000J0D01*
G01*
X9286500Y-7728000D02*
G75*
G03*
X9286500Y-7728000I-51000J0D01*
G01*
X9286500Y-7982000D02*
G75*
G03*
X9286500Y-7982000I-51000J0D01*
G01*
X9286500Y-8236000D02*
G75*
G03*
X9286500Y-8236000I-51000J0D01*
G01*
X9286500Y-8490000D02*
G75*
G03*
X9286500Y-8490000I-51000J0D01*
G01*
X9286500Y-8744000D02*
G75*
G03*
X9286500Y-8744000I-51000J0D01*
G01*
X9286500Y-8998000D02*
G75*
G03*
X9286500Y-8998000I-51000J0D01*
G01*
X9286500Y-9252000D02*
G75*
G03*
X9286500Y-9252000I-51000J0D01*
G01*
X9286500Y-9506000D02*
G75*
G03*
X9286500Y-9506000I-51000J0D01*
G01*
X9286500Y-9760000D02*
G75*
G03*
X9286500Y-9760000I-51000J0D01*
G01*
X9286500Y-10014000D02*
G75*
G03*
X9286500Y-10014000I-51000J0D01*
G01*
X9286500Y-10268000D02*
G75*
G03*
X9286500Y-10268000I-51000J0D01*
G01*
X9286500Y-10522000D02*
G75*
G03*
X9286500Y-10522000I-51000J0D01*
G01*
X9286500Y-10776000D02*
G75*
G03*
X9286500Y-10776000I-51000J0D01*
G01*
D11*
X3738619Y-14609476D02*
X3738619Y-14409476D01*
X3786238Y-14409476D01*
X3814809Y-14419000D01*
X3833857Y-14438048D01*
X3843381Y-14457095D01*
X3852905Y-14495190D01*
X3852905Y-14523762D01*
X3843381Y-14561857D01*
X3833857Y-14580905D01*
X3814809Y-14599952D01*
X3786238Y-14609476D01*
X3738619Y-14609476D01*
X3938619Y-14609476D02*
X3938619Y-14476143D01*
X3938619Y-14514238D02*
X3948143Y-14495190D01*
X3957667Y-14485667D01*
X3976714Y-14476143D01*
X3995762Y-14476143D01*
X4062428Y-14609476D02*
X4062428Y-14476143D01*
X4062428Y-14409476D02*
X4052905Y-14419000D01*
X4062428Y-14428524D01*
X4071952Y-14419000D01*
X4062428Y-14409476D01*
X4062428Y-14428524D01*
X4186238Y-14609476D02*
X4167190Y-14599952D01*
X4157667Y-14580905D01*
X4157667Y-14409476D01*
X4291000Y-14609476D02*
X4271952Y-14599952D01*
X4262429Y-14580905D01*
X4262429Y-14409476D01*
X4519571Y-14609476D02*
X4519571Y-14409476D01*
X4586238Y-14552333D01*
X4652905Y-14409476D01*
X4652905Y-14609476D01*
X4833857Y-14609476D02*
X4833857Y-14504714D01*
X4824333Y-14485667D01*
X4805286Y-14476143D01*
X4767190Y-14476143D01*
X4748143Y-14485667D01*
X4833857Y-14599952D02*
X4814810Y-14609476D01*
X4767190Y-14609476D01*
X4748143Y-14599952D01*
X4738619Y-14580905D01*
X4738619Y-14561857D01*
X4748143Y-14542809D01*
X4767190Y-14533286D01*
X4814810Y-14533286D01*
X4833857Y-14523762D01*
X4929095Y-14476143D02*
X4929095Y-14676143D01*
X4929095Y-14485667D02*
X4948143Y-14476143D01*
X4986238Y-14476143D01*
X5005286Y-14485667D01*
X5014810Y-14495190D01*
X5024333Y-14514238D01*
X5024333Y-14571381D01*
X5014810Y-14590428D01*
X5005286Y-14599952D01*
X4986238Y-14609476D01*
X4948143Y-14609476D01*
X4929095Y-14599952D01*
X5110048Y-14590428D02*
X5119571Y-14599952D01*
X5110048Y-14609476D01*
X5100524Y-14599952D01*
X5110048Y-14590428D01*
X5110048Y-14609476D01*
X5110048Y-14485667D02*
X5119571Y-14495190D01*
X5110048Y-14504714D01*
X5100524Y-14495190D01*
X5110048Y-14485667D01*
X5110048Y-14504714D01*
D10*
X3381000Y-14889000D02*
X3481000Y-14989000D01*
X3481000Y-14889000D02*
X3381000Y-14989000D01*
D11*
X3843381Y-15029476D02*
X3729095Y-15029476D01*
X3786238Y-15029476D02*
X3786238Y-14829476D01*
X3767190Y-14858048D01*
X3748143Y-14877095D01*
X3729095Y-14886619D01*
X3929095Y-15010428D02*
X3938619Y-15019952D01*
X3929095Y-15029476D01*
X3919571Y-15019952D01*
X3929095Y-15010428D01*
X3929095Y-15029476D01*
X4062428Y-14829476D02*
X4081476Y-14829476D01*
X4100524Y-14839000D01*
X4110048Y-14848524D01*
X4119571Y-14867571D01*
X4129095Y-14905667D01*
X4129095Y-14953286D01*
X4119571Y-14991381D01*
X4110048Y-15010428D01*
X4100524Y-15019952D01*
X4081476Y-15029476D01*
X4062428Y-15029476D01*
X4043381Y-15019952D01*
X4033857Y-15010428D01*
X4024333Y-14991381D01*
X4014809Y-14953286D01*
X4014809Y-14905667D01*
X4024333Y-14867571D01*
X4033857Y-14848524D01*
X4043381Y-14839000D01*
X4062428Y-14829476D01*
X4252905Y-14829476D02*
X4271952Y-14829476D01*
X4291000Y-14839000D01*
X4300524Y-14848524D01*
X4310048Y-14867571D01*
X4319571Y-14905667D01*
X4319571Y-14953286D01*
X4310048Y-14991381D01*
X4300524Y-15010428D01*
X4291000Y-15019952D01*
X4271952Y-15029476D01*
X4252905Y-15029476D01*
X4233857Y-15019952D01*
X4224333Y-15010428D01*
X4214810Y-14991381D01*
X4205286Y-14953286D01*
X4205286Y-14905667D01*
X4214810Y-14867571D01*
X4224333Y-14848524D01*
X4233857Y-14839000D01*
X4252905Y-14829476D01*
X4443381Y-14829476D02*
X4462429Y-14829476D01*
X4481476Y-14839000D01*
X4491000Y-14848524D01*
X4500524Y-14867571D01*
X4510048Y-14905667D01*
X4510048Y-14953286D01*
X4500524Y-14991381D01*
X4491000Y-15010428D01*
X4481476Y-15019952D01*
X4462429Y-15029476D01*
X4443381Y-15029476D01*
X4424333Y-15019952D01*
X4414810Y-15010428D01*
X4405286Y-14991381D01*
X4395762Y-14953286D01*
X4395762Y-14905667D01*
X4405286Y-14867571D01*
X4414810Y-14848524D01*
X4424333Y-14839000D01*
X4443381Y-14829476D01*
X4595762Y-15029476D02*
X4595762Y-14896143D01*
X4595762Y-14915190D02*
X4605286Y-14905667D01*
X4624333Y-14896143D01*
X4652905Y-14896143D01*
X4671952Y-14905667D01*
X4681476Y-14924714D01*
X4681476Y-15029476D01*
X4681476Y-14924714D02*
X4691000Y-14905667D01*
X4710048Y-14896143D01*
X4738619Y-14896143D01*
X4757667Y-14905667D01*
X4767190Y-14924714D01*
X4767190Y-15029476D01*
X4862429Y-15029476D02*
X4862429Y-14896143D01*
X4862429Y-14915190D02*
X4871952Y-14905667D01*
X4891000Y-14896143D01*
X4919571Y-14896143D01*
X4938619Y-14905667D01*
X4948143Y-14924714D01*
X4948143Y-15029476D01*
X4948143Y-14924714D02*
X4957667Y-14905667D01*
X4976714Y-14896143D01*
X5005286Y-14896143D01*
X5024333Y-14905667D01*
X5033857Y-14924714D01*
X5033857Y-15029476D01*
X5424333Y-14819952D02*
X5252905Y-15077095D01*
X5681476Y-14829476D02*
X5700524Y-14829476D01*
X5719571Y-14839000D01*
X5729095Y-14848524D01*
X5738619Y-14867571D01*
X5748143Y-14905667D01*
X5748143Y-14953286D01*
X5738619Y-14991381D01*
X5729095Y-15010428D01*
X5719571Y-15019952D01*
X5700524Y-15029476D01*
X5681476Y-15029476D01*
X5662428Y-15019952D01*
X5652905Y-15010428D01*
X5643381Y-14991381D01*
X5633857Y-14953286D01*
X5633857Y-14905667D01*
X5643381Y-14867571D01*
X5652905Y-14848524D01*
X5662428Y-14839000D01*
X5681476Y-14829476D01*
X5833857Y-15010428D02*
X5843381Y-15019952D01*
X5833857Y-15029476D01*
X5824333Y-15019952D01*
X5833857Y-15010428D01*
X5833857Y-15029476D01*
X5967190Y-14829476D02*
X5986238Y-14829476D01*
X6005286Y-14839000D01*
X6014809Y-14848524D01*
X6024333Y-14867571D01*
X6033857Y-14905667D01*
X6033857Y-14953286D01*
X6024333Y-14991381D01*
X6014809Y-15010428D01*
X6005286Y-15019952D01*
X5986238Y-15029476D01*
X5967190Y-15029476D01*
X5948143Y-15019952D01*
X5938619Y-15010428D01*
X5929095Y-14991381D01*
X5919571Y-14953286D01*
X5919571Y-14905667D01*
X5929095Y-14867571D01*
X5938619Y-14848524D01*
X5948143Y-14839000D01*
X5967190Y-14829476D01*
X6100524Y-14829476D02*
X6224333Y-14829476D01*
X6157667Y-14905667D01*
X6186238Y-14905667D01*
X6205286Y-14915190D01*
X6214809Y-14924714D01*
X6224333Y-14943762D01*
X6224333Y-14991381D01*
X6214809Y-15010428D01*
X6205286Y-15019952D01*
X6186238Y-15029476D01*
X6129095Y-15029476D01*
X6110048Y-15019952D01*
X6100524Y-15010428D01*
X6319571Y-15029476D02*
X6357667Y-15029476D01*
X6376714Y-15019952D01*
X6386238Y-15010428D01*
X6405286Y-14981857D01*
X6414809Y-14943762D01*
X6414809Y-14867571D01*
X6405286Y-14848524D01*
X6395762Y-14839000D01*
X6376714Y-14829476D01*
X6338619Y-14829476D01*
X6319571Y-14839000D01*
X6310048Y-14848524D01*
X6300524Y-14867571D01*
X6300524Y-14915190D01*
X6310048Y-14934238D01*
X6319571Y-14943762D01*
X6338619Y-14953286D01*
X6376714Y-14953286D01*
X6395762Y-14943762D01*
X6405286Y-14934238D01*
X6414809Y-14915190D01*
X6586238Y-14896143D02*
X6586238Y-15029476D01*
X6538619Y-14819952D02*
X6491000Y-14962809D01*
X6614809Y-14962809D01*
X6681476Y-14829476D02*
X6681476Y-14867571D01*
X6757667Y-14829476D02*
X6757667Y-14867571D01*
X7052905Y-15105667D02*
X7043381Y-15096143D01*
X7024333Y-15067571D01*
X7014809Y-15048524D01*
X7005286Y-15019952D01*
X6995762Y-14972333D01*
X6995762Y-14934238D01*
X7005286Y-14886619D01*
X7014809Y-14858048D01*
X7024333Y-14839000D01*
X7043381Y-14810428D01*
X7052905Y-14800905D01*
X7233857Y-15029476D02*
X7119571Y-15029476D01*
X7176714Y-15029476D02*
X7176714Y-14829476D01*
X7157667Y-14858048D01*
X7138619Y-14877095D01*
X7119571Y-14886619D01*
X7310048Y-14848524D02*
X7319571Y-14839000D01*
X7338619Y-14829476D01*
X7386238Y-14829476D01*
X7405286Y-14839000D01*
X7414809Y-14848524D01*
X7424333Y-14867571D01*
X7424333Y-14886619D01*
X7414809Y-14915190D01*
X7300524Y-15029476D01*
X7424333Y-15029476D01*
X7662428Y-15029476D02*
X7662428Y-14829476D01*
X7748143Y-15029476D02*
X7748143Y-14924714D01*
X7738619Y-14905667D01*
X7719571Y-14896143D01*
X7691000Y-14896143D01*
X7671952Y-14905667D01*
X7662428Y-14915190D01*
X7871952Y-15029476D02*
X7852905Y-15019952D01*
X7843381Y-15010428D01*
X7833857Y-14991381D01*
X7833857Y-14934238D01*
X7843381Y-14915190D01*
X7852905Y-14905667D01*
X7871952Y-14896143D01*
X7900524Y-14896143D01*
X7919571Y-14905667D01*
X7929095Y-14915190D01*
X7938619Y-14934238D01*
X7938619Y-14991381D01*
X7929095Y-15010428D01*
X7919571Y-15019952D01*
X7900524Y-15029476D01*
X7871952Y-15029476D01*
X8052905Y-15029476D02*
X8033857Y-15019952D01*
X8024333Y-15000905D01*
X8024333Y-14829476D01*
X8205286Y-15019952D02*
X8186238Y-15029476D01*
X8148143Y-15029476D01*
X8129095Y-15019952D01*
X8119571Y-15000905D01*
X8119571Y-14924714D01*
X8129095Y-14905667D01*
X8148143Y-14896143D01*
X8186238Y-14896143D01*
X8205286Y-14905667D01*
X8214809Y-14924714D01*
X8214809Y-14943762D01*
X8119571Y-14962809D01*
X8291000Y-15019952D02*
X8310048Y-15029476D01*
X8348143Y-15029476D01*
X8367190Y-15019952D01*
X8376714Y-15000905D01*
X8376714Y-14991381D01*
X8367190Y-14972333D01*
X8348143Y-14962809D01*
X8319571Y-14962809D01*
X8300524Y-14953286D01*
X8291000Y-14934238D01*
X8291000Y-14924714D01*
X8300524Y-14905667D01*
X8319571Y-14896143D01*
X8348143Y-14896143D01*
X8367190Y-14905667D01*
X8443381Y-15105667D02*
X8452905Y-15096143D01*
X8471952Y-15067571D01*
X8481476Y-15048524D01*
X8491000Y-15019952D01*
X8500524Y-14972333D01*
X8500524Y-14934238D01*
X8491000Y-14886619D01*
X8481476Y-14858048D01*
X8471952Y-14839000D01*
X8452905Y-14810428D01*
X8443381Y-14800905D01*
D12*
X3481000Y-15203000D02*
G75*
G03*
X3481000Y-15203000I-51000J0D01*
G01*
D11*
X3843381Y-15293476D02*
X3729095Y-15293476D01*
X3786238Y-15293476D02*
X3786238Y-15093476D01*
X3767190Y-15122048D01*
X3748143Y-15141095D01*
X3729095Y-15150619D01*
X3929095Y-15274428D02*
X3938619Y-15283952D01*
X3929095Y-15293476D01*
X3919571Y-15283952D01*
X3929095Y-15274428D01*
X3929095Y-15293476D01*
X4062428Y-15093476D02*
X4081476Y-15093476D01*
X4100524Y-15103000D01*
X4110048Y-15112524D01*
X4119571Y-15131571D01*
X4129095Y-15169667D01*
X4129095Y-15217286D01*
X4119571Y-15255381D01*
X4110048Y-15274428D01*
X4100524Y-15283952D01*
X4081476Y-15293476D01*
X4062428Y-15293476D01*
X4043381Y-15283952D01*
X4033857Y-15274428D01*
X4024333Y-15255381D01*
X4014809Y-15217286D01*
X4014809Y-15169667D01*
X4024333Y-15131571D01*
X4033857Y-15112524D01*
X4043381Y-15103000D01*
X4062428Y-15093476D01*
X4205286Y-15112524D02*
X4214810Y-15103000D01*
X4233857Y-15093476D01*
X4281476Y-15093476D01*
X4300524Y-15103000D01*
X4310048Y-15112524D01*
X4319571Y-15131571D01*
X4319571Y-15150619D01*
X4310048Y-15179190D01*
X4195762Y-15293476D01*
X4319571Y-15293476D01*
X4443381Y-15093476D02*
X4462429Y-15093476D01*
X4481476Y-15103000D01*
X4491000Y-15112524D01*
X4500524Y-15131571D01*
X4510048Y-15169667D01*
X4510048Y-15217286D01*
X4500524Y-15255381D01*
X4491000Y-15274428D01*
X4481476Y-15283952D01*
X4462429Y-15293476D01*
X4443381Y-15293476D01*
X4424333Y-15283952D01*
X4414810Y-15274428D01*
X4405286Y-15255381D01*
X4395762Y-15217286D01*
X4395762Y-15169667D01*
X4405286Y-15131571D01*
X4414810Y-15112524D01*
X4424333Y-15103000D01*
X4443381Y-15093476D01*
X4595762Y-15293476D02*
X4595762Y-15160143D01*
X4595762Y-15179190D02*
X4605286Y-15169667D01*
X4624333Y-15160143D01*
X4652905Y-15160143D01*
X4671952Y-15169667D01*
X4681476Y-15188714D01*
X4681476Y-15293476D01*
X4681476Y-15188714D02*
X4691000Y-15169667D01*
X4710048Y-15160143D01*
X4738619Y-15160143D01*
X4757667Y-15169667D01*
X4767190Y-15188714D01*
X4767190Y-15293476D01*
X4862429Y-15293476D02*
X4862429Y-15160143D01*
X4862429Y-15179190D02*
X4871952Y-15169667D01*
X4891000Y-15160143D01*
X4919571Y-15160143D01*
X4938619Y-15169667D01*
X4948143Y-15188714D01*
X4948143Y-15293476D01*
X4948143Y-15188714D02*
X4957667Y-15169667D01*
X4976714Y-15160143D01*
X5005286Y-15160143D01*
X5024333Y-15169667D01*
X5033857Y-15188714D01*
X5033857Y-15293476D01*
X5424333Y-15083952D02*
X5252905Y-15341095D01*
X5681476Y-15093476D02*
X5700524Y-15093476D01*
X5719571Y-15103000D01*
X5729095Y-15112524D01*
X5738619Y-15131571D01*
X5748143Y-15169667D01*
X5748143Y-15217286D01*
X5738619Y-15255381D01*
X5729095Y-15274428D01*
X5719571Y-15283952D01*
X5700524Y-15293476D01*
X5681476Y-15293476D01*
X5662428Y-15283952D01*
X5652905Y-15274428D01*
X5643381Y-15255381D01*
X5633857Y-15217286D01*
X5633857Y-15169667D01*
X5643381Y-15131571D01*
X5652905Y-15112524D01*
X5662428Y-15103000D01*
X5681476Y-15093476D01*
X5833857Y-15274428D02*
X5843381Y-15283952D01*
X5833857Y-15293476D01*
X5824333Y-15283952D01*
X5833857Y-15274428D01*
X5833857Y-15293476D01*
X5967190Y-15093476D02*
X5986238Y-15093476D01*
X6005286Y-15103000D01*
X6014809Y-15112524D01*
X6024333Y-15131571D01*
X6033857Y-15169667D01*
X6033857Y-15217286D01*
X6024333Y-15255381D01*
X6014809Y-15274428D01*
X6005286Y-15283952D01*
X5986238Y-15293476D01*
X5967190Y-15293476D01*
X5948143Y-15283952D01*
X5938619Y-15274428D01*
X5929095Y-15255381D01*
X5919571Y-15217286D01*
X5919571Y-15169667D01*
X5929095Y-15131571D01*
X5938619Y-15112524D01*
X5948143Y-15103000D01*
X5967190Y-15093476D01*
X6205286Y-15160143D02*
X6205286Y-15293476D01*
X6157667Y-15083952D02*
X6110048Y-15226809D01*
X6233857Y-15226809D01*
X6348143Y-15093476D02*
X6367190Y-15093476D01*
X6386238Y-15103000D01*
X6395762Y-15112524D01*
X6405286Y-15131571D01*
X6414809Y-15169667D01*
X6414809Y-15217286D01*
X6405286Y-15255381D01*
X6395762Y-15274428D01*
X6386238Y-15283952D01*
X6367190Y-15293476D01*
X6348143Y-15293476D01*
X6329095Y-15283952D01*
X6319571Y-15274428D01*
X6310048Y-15255381D01*
X6300524Y-15217286D01*
X6300524Y-15169667D01*
X6310048Y-15131571D01*
X6319571Y-15112524D01*
X6329095Y-15103000D01*
X6348143Y-15093476D01*
X6491000Y-15112524D02*
X6500524Y-15103000D01*
X6519571Y-15093476D01*
X6567190Y-15093476D01*
X6586238Y-15103000D01*
X6595762Y-15112524D01*
X6605286Y-15131571D01*
X6605286Y-15150619D01*
X6595762Y-15179190D01*
X6481476Y-15293476D01*
X6605286Y-15293476D01*
X6681476Y-15093476D02*
X6681476Y-15131571D01*
X6757667Y-15093476D02*
X6757667Y-15131571D01*
X7052905Y-15369667D02*
X7043381Y-15360143D01*
X7024333Y-15331571D01*
X7014809Y-15312524D01*
X7005286Y-15283952D01*
X6995762Y-15236333D01*
X6995762Y-15198238D01*
X7005286Y-15150619D01*
X7014809Y-15122048D01*
X7024333Y-15103000D01*
X7043381Y-15074428D01*
X7052905Y-15064905D01*
X7110048Y-15093476D02*
X7233857Y-15093476D01*
X7167190Y-15169667D01*
X7195762Y-15169667D01*
X7214809Y-15179190D01*
X7224333Y-15188714D01*
X7233857Y-15207762D01*
X7233857Y-15255381D01*
X7224333Y-15274428D01*
X7214809Y-15283952D01*
X7195762Y-15293476D01*
X7138619Y-15293476D01*
X7119571Y-15283952D01*
X7110048Y-15274428D01*
X7357667Y-15093476D02*
X7376714Y-15093476D01*
X7395762Y-15103000D01*
X7405286Y-15112524D01*
X7414809Y-15131571D01*
X7424333Y-15169667D01*
X7424333Y-15217286D01*
X7414809Y-15255381D01*
X7405286Y-15274428D01*
X7395762Y-15283952D01*
X7376714Y-15293476D01*
X7357667Y-15293476D01*
X7338619Y-15283952D01*
X7329095Y-15274428D01*
X7319571Y-15255381D01*
X7310048Y-15217286D01*
X7310048Y-15169667D01*
X7319571Y-15131571D01*
X7329095Y-15112524D01*
X7338619Y-15103000D01*
X7357667Y-15093476D01*
X7662428Y-15293476D02*
X7662428Y-15093476D01*
X7748143Y-15293476D02*
X7748143Y-15188714D01*
X7738619Y-15169667D01*
X7719571Y-15160143D01*
X7691000Y-15160143D01*
X7671952Y-15169667D01*
X7662428Y-15179190D01*
X7871952Y-15293476D02*
X7852905Y-15283952D01*
X7843381Y-15274428D01*
X7833857Y-15255381D01*
X7833857Y-15198238D01*
X7843381Y-15179190D01*
X7852905Y-15169667D01*
X7871952Y-15160143D01*
X7900524Y-15160143D01*
X7919571Y-15169667D01*
X7929095Y-15179190D01*
X7938619Y-15198238D01*
X7938619Y-15255381D01*
X7929095Y-15274428D01*
X7919571Y-15283952D01*
X7900524Y-15293476D01*
X7871952Y-15293476D01*
X8052905Y-15293476D02*
X8033857Y-15283952D01*
X8024333Y-15264905D01*
X8024333Y-15093476D01*
X8205286Y-15283952D02*
X8186238Y-15293476D01*
X8148143Y-15293476D01*
X8129095Y-15283952D01*
X8119571Y-15264905D01*
X8119571Y-15188714D01*
X8129095Y-15169667D01*
X8148143Y-15160143D01*
X8186238Y-15160143D01*
X8205286Y-15169667D01*
X8214809Y-15188714D01*
X8214809Y-15207762D01*
X8119571Y-15226809D01*
X8291000Y-15283952D02*
X8310048Y-15293476D01*
X8348143Y-15293476D01*
X8367190Y-15283952D01*
X8376714Y-15264905D01*
X8376714Y-15255381D01*
X8367190Y-15236333D01*
X8348143Y-15226809D01*
X8319571Y-15226809D01*
X8300524Y-15217286D01*
X8291000Y-15198238D01*
X8291000Y-15188714D01*
X8300524Y-15169667D01*
X8319571Y-15160143D01*
X8348143Y-15160143D01*
X8367190Y-15169667D01*
X8443381Y-15369667D02*
X8452905Y-15360143D01*
X8471952Y-15331571D01*
X8481476Y-15312524D01*
X8491000Y-15283952D01*
X8500524Y-15236333D01*
X8500524Y-15198238D01*
X8491000Y-15150619D01*
X8481476Y-15122048D01*
X8471952Y-15103000D01*
X8452905Y-15074428D01*
X8443381Y-15064905D01*
M02*
