%TF.GenerationSoftware,KiCad,Pcbnew,(6.0.9)*%
%TF.CreationDate,2023-01-15T17:57:40-06:00*%
%TF.ProjectId,URVBuoyancyEngine,55525642-756f-4796-916e-6379456e6769,rev?*%
%TF.SameCoordinates,Original*%
%TF.FileFunction,Drillmap*%
%TF.FilePolarity,Positive*%
%FSLAX45Y45*%
G04 Gerber Fmt 4.5, Leading zero omitted, Abs format (unit mm)*
G04 Created by KiCad (PCBNEW (6.0.9)) date 2023-01-15 17:57:40*
%MOMM*%
%LPD*%
G01*
G04 APERTURE LIST*
%ADD10C,0.100000*%
%ADD11C,0.200000*%
%ADD12C,0.300000*%
G04 APERTURE END LIST*
D10*
X13462000Y-8890000D02*
G75*
G03*
X13462000Y-8890000I-1016000J0D01*
G01*
X13786000Y-9144000D02*
G75*
G03*
X13786000Y-9144000I-5150000J0D01*
G01*
D11*
D12*
X6592500Y-6727000D02*
X6892500Y-7027000D01*
X6892500Y-6727000D02*
X6592500Y-7027000D01*
X6592500Y-11422000D02*
X6892500Y-11722000D01*
X6892500Y-11422000D02*
X6592500Y-11722000D01*
X9043500Y-6727000D02*
X9343500Y-7027000D01*
X9343500Y-6727000D02*
X9043500Y-7027000D01*
X9043500Y-11422000D02*
X9343500Y-11722000D01*
X9343500Y-11422000D02*
X9043500Y-11722000D01*
D11*
X3738619Y-14609476D02*
X3738619Y-14409476D01*
X3786238Y-14409476D01*
X3814809Y-14419000D01*
X3833857Y-14438048D01*
X3843381Y-14457095D01*
X3852905Y-14495190D01*
X3852905Y-14523762D01*
X3843381Y-14561857D01*
X3833857Y-14580905D01*
X3814809Y-14599952D01*
X3786238Y-14609476D01*
X3738619Y-14609476D01*
X3938619Y-14609476D02*
X3938619Y-14476143D01*
X3938619Y-14514238D02*
X3948143Y-14495190D01*
X3957667Y-14485667D01*
X3976714Y-14476143D01*
X3995762Y-14476143D01*
X4062428Y-14609476D02*
X4062428Y-14476143D01*
X4062428Y-14409476D02*
X4052905Y-14419000D01*
X4062428Y-14428524D01*
X4071952Y-14419000D01*
X4062428Y-14409476D01*
X4062428Y-14428524D01*
X4186238Y-14609476D02*
X4167190Y-14599952D01*
X4157667Y-14580905D01*
X4157667Y-14409476D01*
X4291000Y-14609476D02*
X4271952Y-14599952D01*
X4262429Y-14580905D01*
X4262429Y-14409476D01*
X4519571Y-14609476D02*
X4519571Y-14409476D01*
X4586238Y-14552333D01*
X4652905Y-14409476D01*
X4652905Y-14609476D01*
X4833857Y-14609476D02*
X4833857Y-14504714D01*
X4824333Y-14485667D01*
X4805286Y-14476143D01*
X4767190Y-14476143D01*
X4748143Y-14485667D01*
X4833857Y-14599952D02*
X4814810Y-14609476D01*
X4767190Y-14609476D01*
X4748143Y-14599952D01*
X4738619Y-14580905D01*
X4738619Y-14561857D01*
X4748143Y-14542809D01*
X4767190Y-14533286D01*
X4814810Y-14533286D01*
X4833857Y-14523762D01*
X4929095Y-14476143D02*
X4929095Y-14676143D01*
X4929095Y-14485667D02*
X4948143Y-14476143D01*
X4986238Y-14476143D01*
X5005286Y-14485667D01*
X5014810Y-14495190D01*
X5024333Y-14514238D01*
X5024333Y-14571381D01*
X5014810Y-14590428D01*
X5005286Y-14599952D01*
X4986238Y-14609476D01*
X4948143Y-14609476D01*
X4929095Y-14599952D01*
X5110048Y-14590428D02*
X5119571Y-14599952D01*
X5110048Y-14609476D01*
X5100524Y-14599952D01*
X5110048Y-14590428D01*
X5110048Y-14609476D01*
X5110048Y-14485667D02*
X5119571Y-14495190D01*
X5110048Y-14504714D01*
X5100524Y-14495190D01*
X5110048Y-14485667D01*
X5110048Y-14504714D01*
X3281000Y-14839000D02*
X3481000Y-15039000D01*
X3481000Y-14839000D02*
X3281000Y-15039000D01*
X3719571Y-14829476D02*
X3843381Y-14829476D01*
X3776714Y-14905667D01*
X3805286Y-14905667D01*
X3824333Y-14915190D01*
X3833857Y-14924714D01*
X3843381Y-14943762D01*
X3843381Y-14991381D01*
X3833857Y-15010428D01*
X3824333Y-15019952D01*
X3805286Y-15029476D01*
X3748143Y-15029476D01*
X3729095Y-15019952D01*
X3719571Y-15010428D01*
X3929095Y-15010428D02*
X3938619Y-15019952D01*
X3929095Y-15029476D01*
X3919571Y-15019952D01*
X3929095Y-15010428D01*
X3929095Y-15029476D01*
X4062428Y-14829476D02*
X4081476Y-14829476D01*
X4100524Y-14839000D01*
X4110048Y-14848524D01*
X4119571Y-14867571D01*
X4129095Y-14905667D01*
X4129095Y-14953286D01*
X4119571Y-14991381D01*
X4110048Y-15010428D01*
X4100524Y-15019952D01*
X4081476Y-15029476D01*
X4062428Y-15029476D01*
X4043381Y-15019952D01*
X4033857Y-15010428D01*
X4024333Y-14991381D01*
X4014809Y-14953286D01*
X4014809Y-14905667D01*
X4024333Y-14867571D01*
X4033857Y-14848524D01*
X4043381Y-14839000D01*
X4062428Y-14829476D01*
X4252905Y-14829476D02*
X4271952Y-14829476D01*
X4291000Y-14839000D01*
X4300524Y-14848524D01*
X4310048Y-14867571D01*
X4319571Y-14905667D01*
X4319571Y-14953286D01*
X4310048Y-14991381D01*
X4300524Y-15010428D01*
X4291000Y-15019952D01*
X4271952Y-15029476D01*
X4252905Y-15029476D01*
X4233857Y-15019952D01*
X4224333Y-15010428D01*
X4214810Y-14991381D01*
X4205286Y-14953286D01*
X4205286Y-14905667D01*
X4214810Y-14867571D01*
X4224333Y-14848524D01*
X4233857Y-14839000D01*
X4252905Y-14829476D01*
X4443381Y-14829476D02*
X4462429Y-14829476D01*
X4481476Y-14839000D01*
X4491000Y-14848524D01*
X4500524Y-14867571D01*
X4510048Y-14905667D01*
X4510048Y-14953286D01*
X4500524Y-14991381D01*
X4491000Y-15010428D01*
X4481476Y-15019952D01*
X4462429Y-15029476D01*
X4443381Y-15029476D01*
X4424333Y-15019952D01*
X4414810Y-15010428D01*
X4405286Y-14991381D01*
X4395762Y-14953286D01*
X4395762Y-14905667D01*
X4405286Y-14867571D01*
X4414810Y-14848524D01*
X4424333Y-14839000D01*
X4443381Y-14829476D01*
X4595762Y-15029476D02*
X4595762Y-14896143D01*
X4595762Y-14915190D02*
X4605286Y-14905667D01*
X4624333Y-14896143D01*
X4652905Y-14896143D01*
X4671952Y-14905667D01*
X4681476Y-14924714D01*
X4681476Y-15029476D01*
X4681476Y-14924714D02*
X4691000Y-14905667D01*
X4710048Y-14896143D01*
X4738619Y-14896143D01*
X4757667Y-14905667D01*
X4767190Y-14924714D01*
X4767190Y-15029476D01*
X4862429Y-15029476D02*
X4862429Y-14896143D01*
X4862429Y-14915190D02*
X4871952Y-14905667D01*
X4891000Y-14896143D01*
X4919571Y-14896143D01*
X4938619Y-14905667D01*
X4948143Y-14924714D01*
X4948143Y-15029476D01*
X4948143Y-14924714D02*
X4957667Y-14905667D01*
X4976714Y-14896143D01*
X5005286Y-14896143D01*
X5024333Y-14905667D01*
X5033857Y-14924714D01*
X5033857Y-15029476D01*
X5424333Y-14819952D02*
X5252905Y-15077095D01*
X5681476Y-14829476D02*
X5700524Y-14829476D01*
X5719571Y-14839000D01*
X5729095Y-14848524D01*
X5738619Y-14867571D01*
X5748143Y-14905667D01*
X5748143Y-14953286D01*
X5738619Y-14991381D01*
X5729095Y-15010428D01*
X5719571Y-15019952D01*
X5700524Y-15029476D01*
X5681476Y-15029476D01*
X5662428Y-15019952D01*
X5652905Y-15010428D01*
X5643381Y-14991381D01*
X5633857Y-14953286D01*
X5633857Y-14905667D01*
X5643381Y-14867571D01*
X5652905Y-14848524D01*
X5662428Y-14839000D01*
X5681476Y-14829476D01*
X5833857Y-15010428D02*
X5843381Y-15019952D01*
X5833857Y-15029476D01*
X5824333Y-15019952D01*
X5833857Y-15010428D01*
X5833857Y-15029476D01*
X6033857Y-15029476D02*
X5919571Y-15029476D01*
X5976714Y-15029476D02*
X5976714Y-14829476D01*
X5957667Y-14858048D01*
X5938619Y-14877095D01*
X5919571Y-14886619D01*
X6224333Y-15029476D02*
X6110048Y-15029476D01*
X6167190Y-15029476D02*
X6167190Y-14829476D01*
X6148143Y-14858048D01*
X6129095Y-14877095D01*
X6110048Y-14886619D01*
X6338619Y-14915190D02*
X6319571Y-14905667D01*
X6310048Y-14896143D01*
X6300524Y-14877095D01*
X6300524Y-14867571D01*
X6310048Y-14848524D01*
X6319571Y-14839000D01*
X6338619Y-14829476D01*
X6376714Y-14829476D01*
X6395762Y-14839000D01*
X6405286Y-14848524D01*
X6414809Y-14867571D01*
X6414809Y-14877095D01*
X6405286Y-14896143D01*
X6395762Y-14905667D01*
X6376714Y-14915190D01*
X6338619Y-14915190D01*
X6319571Y-14924714D01*
X6310048Y-14934238D01*
X6300524Y-14953286D01*
X6300524Y-14991381D01*
X6310048Y-15010428D01*
X6319571Y-15019952D01*
X6338619Y-15029476D01*
X6376714Y-15029476D01*
X6395762Y-15019952D01*
X6405286Y-15010428D01*
X6414809Y-14991381D01*
X6414809Y-14953286D01*
X6405286Y-14934238D01*
X6395762Y-14924714D01*
X6376714Y-14915190D01*
X6605286Y-15029476D02*
X6491000Y-15029476D01*
X6548143Y-15029476D02*
X6548143Y-14829476D01*
X6529095Y-14858048D01*
X6510048Y-14877095D01*
X6491000Y-14886619D01*
X6681476Y-14829476D02*
X6681476Y-14867571D01*
X6757667Y-14829476D02*
X6757667Y-14867571D01*
X7052905Y-15105667D02*
X7043381Y-15096143D01*
X7024333Y-15067571D01*
X7014809Y-15048524D01*
X7005286Y-15019952D01*
X6995762Y-14972333D01*
X6995762Y-14934238D01*
X7005286Y-14886619D01*
X7014809Y-14858048D01*
X7024333Y-14839000D01*
X7043381Y-14810428D01*
X7052905Y-14800905D01*
X7214809Y-14896143D02*
X7214809Y-15029476D01*
X7167190Y-14819952D02*
X7119571Y-14962809D01*
X7243381Y-14962809D01*
X7471952Y-15029476D02*
X7471952Y-14829476D01*
X7557667Y-15029476D02*
X7557667Y-14924714D01*
X7548143Y-14905667D01*
X7529095Y-14896143D01*
X7500524Y-14896143D01*
X7481476Y-14905667D01*
X7471952Y-14915190D01*
X7681476Y-15029476D02*
X7662428Y-15019952D01*
X7652905Y-15010428D01*
X7643381Y-14991381D01*
X7643381Y-14934238D01*
X7652905Y-14915190D01*
X7662428Y-14905667D01*
X7681476Y-14896143D01*
X7710048Y-14896143D01*
X7729095Y-14905667D01*
X7738619Y-14915190D01*
X7748143Y-14934238D01*
X7748143Y-14991381D01*
X7738619Y-15010428D01*
X7729095Y-15019952D01*
X7710048Y-15029476D01*
X7681476Y-15029476D01*
X7862428Y-15029476D02*
X7843381Y-15019952D01*
X7833857Y-15000905D01*
X7833857Y-14829476D01*
X8014809Y-15019952D02*
X7995762Y-15029476D01*
X7957667Y-15029476D01*
X7938619Y-15019952D01*
X7929095Y-15000905D01*
X7929095Y-14924714D01*
X7938619Y-14905667D01*
X7957667Y-14896143D01*
X7995762Y-14896143D01*
X8014809Y-14905667D01*
X8024333Y-14924714D01*
X8024333Y-14943762D01*
X7929095Y-14962809D01*
X8100524Y-15019952D02*
X8119571Y-15029476D01*
X8157667Y-15029476D01*
X8176714Y-15019952D01*
X8186238Y-15000905D01*
X8186238Y-14991381D01*
X8176714Y-14972333D01*
X8157667Y-14962809D01*
X8129095Y-14962809D01*
X8110048Y-14953286D01*
X8100524Y-14934238D01*
X8100524Y-14924714D01*
X8110048Y-14905667D01*
X8129095Y-14896143D01*
X8157667Y-14896143D01*
X8176714Y-14905667D01*
X8252905Y-15105667D02*
X8262428Y-15096143D01*
X8281476Y-15067571D01*
X8291000Y-15048524D01*
X8300524Y-15019952D01*
X8310048Y-14972333D01*
X8310048Y-14934238D01*
X8300524Y-14886619D01*
X8291000Y-14858048D01*
X8281476Y-14839000D01*
X8262428Y-14810428D01*
X8252905Y-14800905D01*
X8614810Y-15105667D02*
X8605286Y-15096143D01*
X8586238Y-15067571D01*
X8576714Y-15048524D01*
X8567190Y-15019952D01*
X8557667Y-14972333D01*
X8557667Y-14934238D01*
X8567190Y-14886619D01*
X8576714Y-14858048D01*
X8586238Y-14839000D01*
X8605286Y-14810428D01*
X8614810Y-14800905D01*
X8691000Y-14896143D02*
X8691000Y-15029476D01*
X8691000Y-14915190D02*
X8700524Y-14905667D01*
X8719571Y-14896143D01*
X8748143Y-14896143D01*
X8767190Y-14905667D01*
X8776714Y-14924714D01*
X8776714Y-15029476D01*
X8900524Y-15029476D02*
X8881476Y-15019952D01*
X8871952Y-15010428D01*
X8862429Y-14991381D01*
X8862429Y-14934238D01*
X8871952Y-14915190D01*
X8881476Y-14905667D01*
X8900524Y-14896143D01*
X8929095Y-14896143D01*
X8948143Y-14905667D01*
X8957667Y-14915190D01*
X8967190Y-14934238D01*
X8967190Y-14991381D01*
X8957667Y-15010428D01*
X8948143Y-15019952D01*
X8929095Y-15029476D01*
X8900524Y-15029476D01*
X9024333Y-14896143D02*
X9100524Y-14896143D01*
X9052905Y-14829476D02*
X9052905Y-15000905D01*
X9062429Y-15019952D01*
X9081476Y-15029476D01*
X9100524Y-15029476D01*
X9319571Y-14896143D02*
X9319571Y-15096143D01*
X9319571Y-14905667D02*
X9338619Y-14896143D01*
X9376714Y-14896143D01*
X9395762Y-14905667D01*
X9405286Y-14915190D01*
X9414810Y-14934238D01*
X9414810Y-14991381D01*
X9405286Y-15010428D01*
X9395762Y-15019952D01*
X9376714Y-15029476D01*
X9338619Y-15029476D01*
X9319571Y-15019952D01*
X9529095Y-15029476D02*
X9510048Y-15019952D01*
X9500524Y-15000905D01*
X9500524Y-14829476D01*
X9691000Y-15029476D02*
X9691000Y-14924714D01*
X9681476Y-14905667D01*
X9662429Y-14896143D01*
X9624333Y-14896143D01*
X9605286Y-14905667D01*
X9691000Y-15019952D02*
X9671952Y-15029476D01*
X9624333Y-15029476D01*
X9605286Y-15019952D01*
X9595762Y-15000905D01*
X9595762Y-14981857D01*
X9605286Y-14962809D01*
X9624333Y-14953286D01*
X9671952Y-14953286D01*
X9691000Y-14943762D01*
X9757667Y-14896143D02*
X9833857Y-14896143D01*
X9786238Y-14829476D02*
X9786238Y-15000905D01*
X9795762Y-15019952D01*
X9814810Y-15029476D01*
X9833857Y-15029476D01*
X9976714Y-15019952D02*
X9957667Y-15029476D01*
X9919571Y-15029476D01*
X9900524Y-15019952D01*
X9891000Y-15000905D01*
X9891000Y-14924714D01*
X9900524Y-14905667D01*
X9919571Y-14896143D01*
X9957667Y-14896143D01*
X9976714Y-14905667D01*
X9986238Y-14924714D01*
X9986238Y-14943762D01*
X9891000Y-14962809D01*
X10157667Y-15029476D02*
X10157667Y-14829476D01*
X10157667Y-15019952D02*
X10138619Y-15029476D01*
X10100524Y-15029476D01*
X10081476Y-15019952D01*
X10071952Y-15010428D01*
X10062429Y-14991381D01*
X10062429Y-14934238D01*
X10071952Y-14915190D01*
X10081476Y-14905667D01*
X10100524Y-14896143D01*
X10138619Y-14896143D01*
X10157667Y-14905667D01*
X10233857Y-15105667D02*
X10243381Y-15096143D01*
X10262429Y-15067571D01*
X10271952Y-15048524D01*
X10281476Y-15019952D01*
X10291000Y-14972333D01*
X10291000Y-14934238D01*
X10281476Y-14886619D01*
X10271952Y-14858048D01*
X10262429Y-14839000D01*
X10243381Y-14810428D01*
X10233857Y-14800905D01*
M02*
