%TF.GenerationSoftware,KiCad,Pcbnew,(6.0.9)*%
%TF.CreationDate,2023-01-15T17:56:17-06:00*%
%TF.ProjectId,URVBuoyancyEngine,55525642-756f-4796-916e-6379456e6769,rev?*%
%TF.SameCoordinates,Original*%
%TF.FileFunction,Copper,L1,Top*%
%TF.FilePolarity,Positive*%
%FSLAX46Y46*%
G04 Gerber Fmt 4.6, Leading zero omitted, Abs format (unit mm)*
G04 Created by KiCad (PCBNEW (6.0.9)) date 2023-01-15 17:56:17*
%MOMM*%
%LPD*%
G01*
G04 APERTURE LIST*
G04 Aperture macros list*
%AMRoundRect*
0 Rectangle with rounded corners*
0 $1 Rounding radius*
0 $2 $3 $4 $5 $6 $7 $8 $9 X,Y pos of 4 corners*
0 Add a 4 corners polygon primitive as box body*
4,1,4,$2,$3,$4,$5,$6,$7,$8,$9,$2,$3,0*
0 Add four circle primitives for the rounded corners*
1,1,$1+$1,$2,$3*
1,1,$1+$1,$4,$5*
1,1,$1+$1,$6,$7*
1,1,$1+$1,$8,$9*
0 Add four rect primitives between the rounded corners*
20,1,$1+$1,$2,$3,$4,$5,0*
20,1,$1+$1,$4,$5,$6,$7,0*
20,1,$1+$1,$6,$7,$8,$9,0*
20,1,$1+$1,$8,$9,$2,$3,0*%
G04 Aperture macros list end*
%TA.AperFunction,ComponentPad*%
%ADD10R,1.700000X1.700000*%
%TD*%
%TA.AperFunction,ComponentPad*%
%ADD11O,1.700000X1.700000*%
%TD*%
%TA.AperFunction,SMDPad,CuDef*%
%ADD12R,0.700000X0.340000*%
%TD*%
%TA.AperFunction,SMDPad,CuDef*%
%ADD13RoundRect,0.250000X1.250000X0.550000X-1.250000X0.550000X-1.250000X-0.550000X1.250000X-0.550000X0*%
%TD*%
%TA.AperFunction,SMDPad,CuDef*%
%ADD14RoundRect,0.225000X0.225000X0.250000X-0.225000X0.250000X-0.225000X-0.250000X0.225000X-0.250000X0*%
%TD*%
%TA.AperFunction,ComponentPad*%
%ADD15R,2.000000X2.000000*%
%TD*%
%TA.AperFunction,ComponentPad*%
%ADD16C,2.000000*%
%TD*%
%TA.AperFunction,Conductor*%
%ADD17C,0.250000*%
%TD*%
G04 APERTURE END LIST*
D10*
X106680000Y-88900000D03*
D11*
X106680000Y-91440000D03*
D12*
X98310000Y-88400000D03*
X98310000Y-88900000D03*
X98310000Y-89400000D03*
X99810000Y-89400000D03*
X99810000Y-88900000D03*
X99810000Y-88400000D03*
D10*
X99060000Y-81280000D03*
D11*
X99060000Y-71120000D03*
X99060000Y-76200000D03*
X99060000Y-78740000D03*
X99060000Y-73660000D03*
D10*
X109220000Y-104140000D03*
D11*
X109220000Y-106680000D03*
D13*
X101260000Y-96520000D03*
X96860000Y-96520000D03*
D14*
X99835000Y-91440000D03*
X98285000Y-91440000D03*
D15*
X92355000Y-107760000D03*
D16*
X92355000Y-105220000D03*
X92355000Y-102680000D03*
X92355000Y-100140000D03*
X92355000Y-97600000D03*
X92355000Y-95060000D03*
X92355000Y-92520000D03*
X92355000Y-89980000D03*
X92355000Y-87440000D03*
X92355000Y-84900000D03*
X92355000Y-82360000D03*
X92355000Y-79820000D03*
X92355000Y-77280000D03*
X92355000Y-74740000D03*
X92355000Y-72200000D03*
X66955000Y-72200000D03*
X66955000Y-74740000D03*
X66955000Y-77280000D03*
X66955000Y-79820000D03*
X66955000Y-82360000D03*
X66955000Y-84900000D03*
X66955000Y-87440000D03*
X66955000Y-89980000D03*
X66955000Y-92520000D03*
X66955000Y-95060000D03*
X66955000Y-97600000D03*
X66955000Y-100140000D03*
X66955000Y-102680000D03*
X66955000Y-105220000D03*
X66955000Y-107760000D03*
D11*
X101600000Y-106680000D03*
D10*
X104140000Y-106680000D03*
D11*
X99060000Y-106680000D03*
D17*
X92355000Y-107760000D02*
X97980000Y-107760000D01*
X97980000Y-107760000D02*
X99060000Y-106680000D01*
X93815000Y-88900000D02*
X92355000Y-87440000D01*
X98310000Y-88900000D02*
X93815000Y-88900000D01*
X92355000Y-84900000D02*
X95855000Y-88400000D01*
X95855000Y-88400000D02*
X98310000Y-88400000D01*
X92355000Y-82360000D02*
X95440000Y-82360000D01*
X95440000Y-82360000D02*
X99060000Y-78740000D01*
X93815000Y-76200000D02*
X92355000Y-74740000D01*
X99060000Y-76200000D02*
X93815000Y-76200000D01*
X106680000Y-88900000D02*
X106180000Y-88400000D01*
X106180000Y-88400000D02*
X99810000Y-88400000D01*
X101850000Y-91440000D02*
X99810000Y-89400000D01*
X106680000Y-91440000D02*
X101850000Y-91440000D01*
X106680000Y-106680000D02*
X109220000Y-104140000D01*
X99835000Y-91440000D02*
X99060000Y-90665000D01*
X104140000Y-106680000D02*
X104140000Y-99400000D01*
X101260000Y-92865000D02*
X99835000Y-91440000D01*
X104140000Y-106680000D02*
X106680000Y-106680000D01*
X104140000Y-99400000D02*
X101260000Y-96520000D01*
X99060000Y-90665000D02*
X99060000Y-88900000D01*
X99060000Y-88900000D02*
X99810000Y-88900000D01*
X101260000Y-96520000D02*
X101260000Y-92865000D01*
X92355000Y-105220000D02*
X100140000Y-105220000D01*
X98285000Y-89425000D02*
X98310000Y-89400000D01*
X98285000Y-91440000D02*
X98285000Y-89425000D01*
X96860000Y-96520000D02*
X96860000Y-101940000D01*
X100140000Y-105220000D02*
X101600000Y-106680000D01*
X66955000Y-105220000D02*
X92355000Y-105220000D01*
X96860000Y-101940000D02*
X101600000Y-106680000D01*
X98285000Y-95095000D02*
X96860000Y-96520000D01*
X98285000Y-91440000D02*
X98285000Y-95095000D01*
M02*
