%TF.GenerationSoftware,KiCad,Pcbnew,(6.0.9)*%
%TF.CreationDate,2023-01-15T17:56:17-06:00*%
%TF.ProjectId,URVBuoyancyEngine,55525642-756f-4796-916e-6379456e6769,rev?*%
%TF.SameCoordinates,Original*%
%TF.FileFunction,Copper,L2,Bot*%
%TF.FilePolarity,Positive*%
%FSLAX46Y46*%
G04 Gerber Fmt 4.6, Leading zero omitted, Abs format (unit mm)*
G04 Created by KiCad (PCBNEW (6.0.9)) date 2023-01-15 17:56:17*
%MOMM*%
%LPD*%
G01*
G04 APERTURE LIST*
%TA.AperFunction,ComponentPad*%
%ADD10R,1.700000X1.700000*%
%TD*%
%TA.AperFunction,ComponentPad*%
%ADD11O,1.700000X1.700000*%
%TD*%
%TA.AperFunction,ComponentPad*%
%ADD12R,2.000000X2.000000*%
%TD*%
%TA.AperFunction,ComponentPad*%
%ADD13C,2.000000*%
%TD*%
%TA.AperFunction,Conductor*%
%ADD14C,0.250000*%
%TD*%
G04 APERTURE END LIST*
D10*
X106680000Y-88900000D03*
D11*
X106680000Y-91440000D03*
D10*
X99060000Y-81280000D03*
D11*
X99060000Y-71120000D03*
X99060000Y-76200000D03*
X99060000Y-78740000D03*
X99060000Y-73660000D03*
D10*
X109220000Y-104140000D03*
D11*
X109220000Y-106680000D03*
D12*
X92355000Y-107760000D03*
D13*
X92355000Y-105220000D03*
X92355000Y-102680000D03*
X92355000Y-100140000D03*
X92355000Y-97600000D03*
X92355000Y-95060000D03*
X92355000Y-92520000D03*
X92355000Y-89980000D03*
X92355000Y-87440000D03*
X92355000Y-84900000D03*
X92355000Y-82360000D03*
X92355000Y-79820000D03*
X92355000Y-77280000D03*
X92355000Y-74740000D03*
X92355000Y-72200000D03*
X66955000Y-72200000D03*
X66955000Y-74740000D03*
X66955000Y-77280000D03*
X66955000Y-79820000D03*
X66955000Y-82360000D03*
X66955000Y-84900000D03*
X66955000Y-87440000D03*
X66955000Y-89980000D03*
X66955000Y-92520000D03*
X66955000Y-95060000D03*
X66955000Y-97600000D03*
X66955000Y-100140000D03*
X66955000Y-102680000D03*
X66955000Y-105220000D03*
X66955000Y-107760000D03*
D11*
X101600000Y-106680000D03*
D10*
X104140000Y-106680000D03*
D11*
X99060000Y-106680000D03*
D14*
X99060000Y-81280000D02*
X99060000Y-106680000D01*
%TA.AperFunction,Conductor*%
G36*
X71062121Y-66060002D02*
G01*
X71108614Y-66113658D01*
X71120000Y-66166000D01*
X71120000Y-66644000D01*
X71099998Y-66712121D01*
X71046342Y-66758614D01*
X70994000Y-66770000D01*
X70875000Y-66770000D01*
X70875000Y-73260000D01*
X70994000Y-73260000D01*
X71062121Y-73280002D01*
X71108614Y-73333658D01*
X71120000Y-73386000D01*
X71120000Y-73660000D01*
X88900000Y-73660000D01*
X88900000Y-68699733D01*
X89922822Y-68699733D01*
X89932625Y-68980458D01*
X89933387Y-68984781D01*
X89933388Y-68984788D01*
X89957164Y-69119624D01*
X89981402Y-69257087D01*
X90068203Y-69524235D01*
X90191340Y-69776702D01*
X90193795Y-69780341D01*
X90193798Y-69780347D01*
X90260745Y-69879599D01*
X90348415Y-70009576D01*
X90536371Y-70218322D01*
X90751550Y-70398879D01*
X90989764Y-70547731D01*
X91107330Y-70600075D01*
X91207746Y-70644783D01*
X91246375Y-70661982D01*
X91250603Y-70663194D01*
X91250602Y-70663194D01*
X91469333Y-70725914D01*
X91529302Y-70763918D01*
X91559204Y-70828310D01*
X91549547Y-70898647D01*
X91500437Y-70954466D01*
X91469803Y-70973238D01*
X91469802Y-70973239D01*
X91465584Y-70975824D01*
X91285031Y-71130031D01*
X91130824Y-71310584D01*
X91128245Y-71314792D01*
X91128241Y-71314798D01*
X91083404Y-71387966D01*
X91006760Y-71513037D01*
X91004867Y-71517607D01*
X91004865Y-71517611D01*
X90963833Y-71616672D01*
X90915895Y-71732406D01*
X90896640Y-71812609D01*
X90870765Y-71920388D01*
X90860465Y-71963289D01*
X90841835Y-72200000D01*
X90860465Y-72436711D01*
X90861619Y-72441518D01*
X90861620Y-72441524D01*
X90877967Y-72509612D01*
X90915895Y-72667594D01*
X90917788Y-72672165D01*
X90917789Y-72672167D01*
X90982452Y-72828277D01*
X91006760Y-72886963D01*
X91009346Y-72891183D01*
X91128241Y-73085202D01*
X91128245Y-73085208D01*
X91130824Y-73089416D01*
X91285031Y-73269969D01*
X91288787Y-73273177D01*
X91288792Y-73273182D01*
X91407056Y-73374189D01*
X91445866Y-73433639D01*
X91446372Y-73504634D01*
X91407056Y-73565811D01*
X91288792Y-73666818D01*
X91288787Y-73666823D01*
X91285031Y-73670031D01*
X91130824Y-73850584D01*
X91128245Y-73854792D01*
X91128241Y-73854798D01*
X91068049Y-73953023D01*
X91006760Y-74053037D01*
X91004867Y-74057607D01*
X91004865Y-74057611D01*
X90959782Y-74166453D01*
X90915895Y-74272406D01*
X90860465Y-74503289D01*
X90841835Y-74740000D01*
X90860465Y-74976711D01*
X90861619Y-74981518D01*
X90861620Y-74981524D01*
X90877967Y-75049612D01*
X90915895Y-75207594D01*
X90917788Y-75212165D01*
X90917789Y-75212167D01*
X90982452Y-75368277D01*
X91006760Y-75426963D01*
X91009346Y-75431183D01*
X91128241Y-75625202D01*
X91128245Y-75625208D01*
X91130824Y-75629416D01*
X91285031Y-75809969D01*
X91288787Y-75813177D01*
X91288792Y-75813182D01*
X91407056Y-75914189D01*
X91445866Y-75973639D01*
X91446372Y-76044634D01*
X91407056Y-76105811D01*
X91288792Y-76206818D01*
X91288787Y-76206823D01*
X91285031Y-76210031D01*
X91130824Y-76390584D01*
X91128245Y-76394792D01*
X91128241Y-76394798D01*
X91068049Y-76493023D01*
X91006760Y-76593037D01*
X91004867Y-76597607D01*
X91004865Y-76597611D01*
X90959782Y-76706453D01*
X90915895Y-76812406D01*
X90860465Y-77043289D01*
X90841835Y-77280000D01*
X90860465Y-77516711D01*
X90861619Y-77521518D01*
X90861620Y-77521524D01*
X90877967Y-77589612D01*
X90915895Y-77747594D01*
X90917788Y-77752165D01*
X90917789Y-77752167D01*
X90982452Y-77908277D01*
X91006760Y-77966963D01*
X91009346Y-77971183D01*
X91128241Y-78165202D01*
X91128245Y-78165208D01*
X91130824Y-78169416D01*
X91285031Y-78349969D01*
X91288787Y-78353177D01*
X91288792Y-78353182D01*
X91407056Y-78454189D01*
X91445866Y-78513639D01*
X91446372Y-78584634D01*
X91407056Y-78645811D01*
X91288792Y-78746818D01*
X91288787Y-78746823D01*
X91285031Y-78750031D01*
X91281823Y-78753787D01*
X91264032Y-78774618D01*
X91130824Y-78930584D01*
X91128245Y-78934792D01*
X91128241Y-78934798D01*
X91068049Y-79033023D01*
X91006760Y-79133037D01*
X91004867Y-79137607D01*
X91004865Y-79137611D01*
X90959782Y-79246453D01*
X90915895Y-79352406D01*
X90860465Y-79583289D01*
X90841835Y-79820000D01*
X90860465Y-80056711D01*
X90861619Y-80061518D01*
X90861620Y-80061524D01*
X90886958Y-80167062D01*
X90915895Y-80287594D01*
X90917788Y-80292165D01*
X90917789Y-80292167D01*
X90979987Y-80442326D01*
X91006760Y-80506963D01*
X91009346Y-80511183D01*
X91128241Y-80705202D01*
X91128245Y-80705208D01*
X91130824Y-80709416D01*
X91285031Y-80889969D01*
X91288787Y-80893177D01*
X91288792Y-80893182D01*
X91407056Y-80994189D01*
X91445866Y-81053639D01*
X91446372Y-81124634D01*
X91407056Y-81185811D01*
X91288792Y-81286818D01*
X91288787Y-81286823D01*
X91285031Y-81290031D01*
X91130824Y-81470584D01*
X91128245Y-81474792D01*
X91128241Y-81474798D01*
X91121588Y-81485655D01*
X91006760Y-81673037D01*
X90915895Y-81892406D01*
X90860465Y-82123289D01*
X90841835Y-82360000D01*
X90860465Y-82596711D01*
X90861619Y-82601518D01*
X90861620Y-82601524D01*
X90884393Y-82696379D01*
X90915895Y-82827594D01*
X90917788Y-82832165D01*
X90917789Y-82832167D01*
X90971755Y-82962452D01*
X91006760Y-83046963D01*
X91009346Y-83051183D01*
X91128241Y-83245202D01*
X91128245Y-83245208D01*
X91130824Y-83249416D01*
X91285031Y-83429969D01*
X91288787Y-83433177D01*
X91288792Y-83433182D01*
X91407056Y-83534189D01*
X91445866Y-83593639D01*
X91446372Y-83664634D01*
X91407056Y-83725811D01*
X91288792Y-83826818D01*
X91288787Y-83826823D01*
X91285031Y-83830031D01*
X91130824Y-84010584D01*
X91128245Y-84014792D01*
X91128241Y-84014798D01*
X91124303Y-84021225D01*
X91006760Y-84213037D01*
X90915895Y-84432406D01*
X90914740Y-84437218D01*
X90869195Y-84626927D01*
X90860465Y-84663289D01*
X90841835Y-84900000D01*
X90860465Y-85136711D01*
X90861619Y-85141518D01*
X90861620Y-85141524D01*
X90896640Y-85287391D01*
X90915895Y-85367594D01*
X91006760Y-85586963D01*
X91009346Y-85591183D01*
X91128241Y-85785202D01*
X91128245Y-85785208D01*
X91130824Y-85789416D01*
X91285031Y-85969969D01*
X91288787Y-85973177D01*
X91288792Y-85973182D01*
X91407056Y-86074189D01*
X91445866Y-86133639D01*
X91446372Y-86204634D01*
X91407056Y-86265811D01*
X91288792Y-86366818D01*
X91288787Y-86366823D01*
X91285031Y-86370031D01*
X91130824Y-86550584D01*
X91128245Y-86554792D01*
X91128241Y-86554798D01*
X91009346Y-86748817D01*
X91006760Y-86753037D01*
X90915895Y-86972406D01*
X90914740Y-86977218D01*
X90867703Y-87173141D01*
X90860465Y-87203289D01*
X90841835Y-87440000D01*
X90860465Y-87676711D01*
X90861619Y-87681518D01*
X90861620Y-87681524D01*
X90863738Y-87690346D01*
X90915895Y-87907594D01*
X91006760Y-88126963D01*
X91009346Y-88131183D01*
X91128241Y-88325202D01*
X91128245Y-88325208D01*
X91130824Y-88329416D01*
X91285031Y-88509969D01*
X91288787Y-88513177D01*
X91288792Y-88513182D01*
X91407056Y-88614189D01*
X91445866Y-88673639D01*
X91446372Y-88744634D01*
X91407056Y-88805811D01*
X91288792Y-88906818D01*
X91288787Y-88906823D01*
X91285031Y-88910031D01*
X91130824Y-89090584D01*
X91128245Y-89094792D01*
X91128241Y-89094798D01*
X91009346Y-89288817D01*
X91006760Y-89293037D01*
X91004867Y-89297607D01*
X91004865Y-89297611D01*
X90918539Y-89506023D01*
X90915895Y-89512406D01*
X90860465Y-89743289D01*
X90841835Y-89980000D01*
X90860465Y-90216711D01*
X90861619Y-90221518D01*
X90861620Y-90221524D01*
X90877382Y-90287176D01*
X90915895Y-90447594D01*
X90917788Y-90452165D01*
X90917789Y-90452167D01*
X90982452Y-90608277D01*
X91006760Y-90666963D01*
X91009346Y-90671183D01*
X91128241Y-90865202D01*
X91128245Y-90865208D01*
X91130824Y-90869416D01*
X91285031Y-91049969D01*
X91288787Y-91053177D01*
X91288792Y-91053182D01*
X91407056Y-91154189D01*
X91445866Y-91213639D01*
X91446372Y-91284634D01*
X91407056Y-91345811D01*
X91288792Y-91446818D01*
X91288787Y-91446823D01*
X91285031Y-91450031D01*
X91130824Y-91630584D01*
X91128245Y-91634792D01*
X91128241Y-91634798D01*
X91068049Y-91733023D01*
X91006760Y-91833037D01*
X91004867Y-91837607D01*
X91004865Y-91837611D01*
X90959782Y-91946453D01*
X90915895Y-92052406D01*
X90914307Y-92059020D01*
X90884679Y-92182432D01*
X90860465Y-92283289D01*
X90841835Y-92520000D01*
X90860465Y-92756711D01*
X90861619Y-92761518D01*
X90861620Y-92761524D01*
X90896640Y-92907391D01*
X90915895Y-92987594D01*
X91006760Y-93206963D01*
X91009346Y-93211183D01*
X91128241Y-93405202D01*
X91128245Y-93405208D01*
X91130824Y-93409416D01*
X91285031Y-93589969D01*
X91288787Y-93593177D01*
X91288792Y-93593182D01*
X91407056Y-93694189D01*
X91445866Y-93753639D01*
X91446372Y-93824634D01*
X91407056Y-93885811D01*
X91288792Y-93986818D01*
X91288787Y-93986823D01*
X91285031Y-93990031D01*
X91130824Y-94170584D01*
X91128245Y-94174792D01*
X91128241Y-94174798D01*
X91059838Y-94286422D01*
X91006760Y-94373037D01*
X90915895Y-94592406D01*
X90860465Y-94823289D01*
X90841835Y-95060000D01*
X90860465Y-95296711D01*
X90915895Y-95527594D01*
X91006760Y-95746963D01*
X91009346Y-95751183D01*
X91128241Y-95945202D01*
X91128245Y-95945208D01*
X91130824Y-95949416D01*
X91285031Y-96129969D01*
X91288787Y-96133177D01*
X91288792Y-96133182D01*
X91407056Y-96234189D01*
X91445866Y-96293639D01*
X91446372Y-96364634D01*
X91407056Y-96425811D01*
X91288792Y-96526818D01*
X91288787Y-96526823D01*
X91285031Y-96530031D01*
X91130824Y-96710584D01*
X91128245Y-96714792D01*
X91128241Y-96714798D01*
X91028914Y-96876885D01*
X91006760Y-96913037D01*
X90915895Y-97132406D01*
X90860465Y-97363289D01*
X90841835Y-97600000D01*
X90860465Y-97836711D01*
X90861619Y-97841518D01*
X90861620Y-97841524D01*
X90896640Y-97987391D01*
X90915895Y-98067594D01*
X90917788Y-98072165D01*
X90917789Y-98072167D01*
X91000163Y-98271036D01*
X91006760Y-98286963D01*
X91009346Y-98291183D01*
X91128241Y-98485202D01*
X91128245Y-98485208D01*
X91130824Y-98489416D01*
X91285031Y-98669969D01*
X91288787Y-98673177D01*
X91288792Y-98673182D01*
X91407056Y-98774189D01*
X91445866Y-98833639D01*
X91446372Y-98904634D01*
X91407056Y-98965811D01*
X91288792Y-99066818D01*
X91288787Y-99066823D01*
X91285031Y-99070031D01*
X91130824Y-99250584D01*
X91128245Y-99254792D01*
X91128241Y-99254798D01*
X91080735Y-99332321D01*
X91006760Y-99453037D01*
X91004867Y-99457607D01*
X91004865Y-99457611D01*
X90976538Y-99526000D01*
X90915895Y-99672406D01*
X90860465Y-99903289D01*
X90841835Y-100140000D01*
X90860465Y-100376711D01*
X90915895Y-100607594D01*
X91006760Y-100826963D01*
X91009346Y-100831183D01*
X91128241Y-101025202D01*
X91128245Y-101025208D01*
X91130824Y-101029416D01*
X91285031Y-101209969D01*
X91288787Y-101213177D01*
X91288792Y-101213182D01*
X91407056Y-101314189D01*
X91445866Y-101373639D01*
X91446372Y-101444634D01*
X91407056Y-101505811D01*
X91288792Y-101606818D01*
X91288787Y-101606823D01*
X91285031Y-101610031D01*
X91130824Y-101790584D01*
X91128245Y-101794792D01*
X91128241Y-101794798D01*
X91009346Y-101988817D01*
X91006760Y-101993037D01*
X90915895Y-102212406D01*
X90860465Y-102443289D01*
X90841835Y-102680000D01*
X90860465Y-102916711D01*
X90861619Y-102921518D01*
X90861620Y-102921524D01*
X90864596Y-102933919D01*
X90915895Y-103147594D01*
X91006760Y-103366963D01*
X91009346Y-103371183D01*
X91128241Y-103565202D01*
X91128245Y-103565208D01*
X91130824Y-103569416D01*
X91285031Y-103749969D01*
X91288787Y-103753177D01*
X91288792Y-103753182D01*
X91441616Y-103883706D01*
X91480426Y-103943156D01*
X91482640Y-103977558D01*
X91490877Y-103996667D01*
X92342188Y-104847978D01*
X92356132Y-104855592D01*
X92357965Y-104855461D01*
X92364580Y-104851210D01*
X93216080Y-103999710D01*
X93225260Y-103982898D01*
X93239020Y-103919650D01*
X93267776Y-103884225D01*
X93421213Y-103753177D01*
X93424969Y-103749969D01*
X93579176Y-103569416D01*
X93581755Y-103565208D01*
X93581759Y-103565202D01*
X93700654Y-103371183D01*
X93703240Y-103366963D01*
X93794105Y-103147594D01*
X93845404Y-102933919D01*
X93848380Y-102921524D01*
X93848381Y-102921518D01*
X93849535Y-102916711D01*
X93868165Y-102680000D01*
X93849535Y-102443289D01*
X93794105Y-102212406D01*
X93703240Y-101993037D01*
X93700654Y-101988817D01*
X93581759Y-101794798D01*
X93581755Y-101794792D01*
X93579176Y-101790584D01*
X93424969Y-101610031D01*
X93421213Y-101606823D01*
X93421208Y-101606818D01*
X93302944Y-101505811D01*
X93264134Y-101446361D01*
X93263628Y-101375366D01*
X93302944Y-101314189D01*
X93421208Y-101213182D01*
X93421213Y-101213177D01*
X93424969Y-101209969D01*
X93579176Y-101029416D01*
X93581755Y-101025208D01*
X93581759Y-101025202D01*
X93700654Y-100831183D01*
X93703240Y-100826963D01*
X93794105Y-100607594D01*
X93849535Y-100376711D01*
X93868165Y-100140000D01*
X93849535Y-99903289D01*
X93794105Y-99672406D01*
X93733462Y-99526000D01*
X93705135Y-99457611D01*
X93705133Y-99457607D01*
X93703240Y-99453037D01*
X93629265Y-99332321D01*
X93581759Y-99254798D01*
X93581755Y-99254792D01*
X93579176Y-99250584D01*
X93424969Y-99070031D01*
X93421213Y-99066823D01*
X93421208Y-99066818D01*
X93302944Y-98965811D01*
X93264134Y-98906361D01*
X93263628Y-98835366D01*
X93302944Y-98774189D01*
X93421208Y-98673182D01*
X93421213Y-98673177D01*
X93424969Y-98669969D01*
X93579176Y-98489416D01*
X93581755Y-98485208D01*
X93581759Y-98485202D01*
X93700654Y-98291183D01*
X93703240Y-98286963D01*
X93709838Y-98271036D01*
X93792211Y-98072167D01*
X93792212Y-98072165D01*
X93794105Y-98067594D01*
X93813360Y-97987391D01*
X93848380Y-97841524D01*
X93848381Y-97841518D01*
X93849535Y-97836711D01*
X93868165Y-97600000D01*
X93849535Y-97363289D01*
X93794105Y-97132406D01*
X93703240Y-96913037D01*
X93681086Y-96876885D01*
X93581759Y-96714798D01*
X93581755Y-96714792D01*
X93579176Y-96710584D01*
X93424969Y-96530031D01*
X93421213Y-96526823D01*
X93421208Y-96526818D01*
X93302944Y-96425811D01*
X93264134Y-96366361D01*
X93263628Y-96295366D01*
X93302944Y-96234189D01*
X93421208Y-96133182D01*
X93421213Y-96133177D01*
X93424969Y-96129969D01*
X93579176Y-95949416D01*
X93581755Y-95945208D01*
X93581759Y-95945202D01*
X93700654Y-95751183D01*
X93703240Y-95746963D01*
X93794105Y-95527594D01*
X93849535Y-95296711D01*
X93868165Y-95060000D01*
X93849535Y-94823289D01*
X93794105Y-94592406D01*
X93703240Y-94373037D01*
X93650162Y-94286422D01*
X93581759Y-94174798D01*
X93581755Y-94174792D01*
X93579176Y-94170584D01*
X93424969Y-93990031D01*
X93421213Y-93986823D01*
X93421208Y-93986818D01*
X93302944Y-93885811D01*
X93264134Y-93826361D01*
X93263628Y-93755366D01*
X93302944Y-93694189D01*
X93421208Y-93593182D01*
X93421213Y-93593177D01*
X93424969Y-93589969D01*
X93579176Y-93409416D01*
X93581755Y-93405208D01*
X93581759Y-93405202D01*
X93700654Y-93211183D01*
X93703240Y-93206963D01*
X93794105Y-92987594D01*
X93813360Y-92907391D01*
X93848380Y-92761524D01*
X93848381Y-92761518D01*
X93849535Y-92756711D01*
X93868165Y-92520000D01*
X93849535Y-92283289D01*
X93825322Y-92182432D01*
X93795693Y-92059020D01*
X93794105Y-92052406D01*
X93750218Y-91946453D01*
X93705135Y-91837611D01*
X93705133Y-91837607D01*
X93703240Y-91833037D01*
X93641951Y-91733023D01*
X93581759Y-91634798D01*
X93581755Y-91634792D01*
X93579176Y-91630584D01*
X93424969Y-91450031D01*
X93421213Y-91446823D01*
X93421208Y-91446818D01*
X93302944Y-91345811D01*
X93264134Y-91286361D01*
X93263628Y-91215366D01*
X93302944Y-91154189D01*
X93421208Y-91053182D01*
X93421213Y-91053177D01*
X93424969Y-91049969D01*
X93579176Y-90869416D01*
X93581755Y-90865208D01*
X93581759Y-90865202D01*
X93700654Y-90671183D01*
X93703240Y-90666963D01*
X93727549Y-90608277D01*
X93792211Y-90452167D01*
X93792212Y-90452165D01*
X93794105Y-90447594D01*
X93832618Y-90287176D01*
X93848380Y-90221524D01*
X93848381Y-90221518D01*
X93849535Y-90216711D01*
X93868165Y-89980000D01*
X93849535Y-89743289D01*
X93794105Y-89512406D01*
X93791461Y-89506023D01*
X93705135Y-89297611D01*
X93705133Y-89297607D01*
X93703240Y-89293037D01*
X93700654Y-89288817D01*
X93581759Y-89094798D01*
X93581755Y-89094792D01*
X93579176Y-89090584D01*
X93424969Y-88910031D01*
X93421213Y-88906823D01*
X93421208Y-88906818D01*
X93302944Y-88805811D01*
X93264134Y-88746361D01*
X93263628Y-88675366D01*
X93302944Y-88614189D01*
X93421208Y-88513182D01*
X93421213Y-88513177D01*
X93424969Y-88509969D01*
X93579176Y-88329416D01*
X93581755Y-88325208D01*
X93581759Y-88325202D01*
X93700654Y-88131183D01*
X93703240Y-88126963D01*
X93794105Y-87907594D01*
X93846262Y-87690346D01*
X93848380Y-87681524D01*
X93848381Y-87681518D01*
X93849535Y-87676711D01*
X93868165Y-87440000D01*
X93849535Y-87203289D01*
X93842298Y-87173141D01*
X93795260Y-86977218D01*
X93794105Y-86972406D01*
X93703240Y-86753037D01*
X93700654Y-86748817D01*
X93581759Y-86554798D01*
X93581755Y-86554792D01*
X93579176Y-86550584D01*
X93424969Y-86370031D01*
X93421213Y-86366823D01*
X93421208Y-86366818D01*
X93302944Y-86265811D01*
X93264134Y-86206361D01*
X93263628Y-86135366D01*
X93302944Y-86074189D01*
X93421208Y-85973182D01*
X93421213Y-85973177D01*
X93424969Y-85969969D01*
X93579176Y-85789416D01*
X93581755Y-85785208D01*
X93581759Y-85785202D01*
X93700654Y-85591183D01*
X93703240Y-85586963D01*
X93794105Y-85367594D01*
X93813360Y-85287391D01*
X93848380Y-85141524D01*
X93848381Y-85141518D01*
X93849535Y-85136711D01*
X93868165Y-84900000D01*
X93849535Y-84663289D01*
X93840806Y-84626927D01*
X93795260Y-84437218D01*
X93794105Y-84432406D01*
X93703240Y-84213037D01*
X93585697Y-84021225D01*
X93581759Y-84014798D01*
X93581755Y-84014792D01*
X93579176Y-84010584D01*
X93424969Y-83830031D01*
X93421213Y-83826823D01*
X93421208Y-83826818D01*
X93302944Y-83725811D01*
X93264134Y-83666361D01*
X93263628Y-83595366D01*
X93302944Y-83534189D01*
X93421208Y-83433182D01*
X93421213Y-83433177D01*
X93424969Y-83429969D01*
X93579176Y-83249416D01*
X93581755Y-83245208D01*
X93581759Y-83245202D01*
X93700654Y-83051183D01*
X93703240Y-83046963D01*
X93738246Y-82962452D01*
X93792211Y-82832167D01*
X93792212Y-82832165D01*
X93794105Y-82827594D01*
X93825607Y-82696379D01*
X93848380Y-82601524D01*
X93848381Y-82601518D01*
X93849535Y-82596711D01*
X93868165Y-82360000D01*
X93849535Y-82123289D01*
X93794105Y-81892406D01*
X93703240Y-81673037D01*
X93588412Y-81485655D01*
X93581759Y-81474798D01*
X93581755Y-81474792D01*
X93579176Y-81470584D01*
X93424969Y-81290031D01*
X93421213Y-81286823D01*
X93421208Y-81286818D01*
X93302944Y-81185811D01*
X93264134Y-81126361D01*
X93263628Y-81055366D01*
X93302944Y-80994189D01*
X93421208Y-80893182D01*
X93421213Y-80893177D01*
X93424969Y-80889969D01*
X93579176Y-80709416D01*
X93581755Y-80705208D01*
X93581759Y-80705202D01*
X93700654Y-80511183D01*
X93703240Y-80506963D01*
X93730014Y-80442326D01*
X93792211Y-80292167D01*
X93792212Y-80292165D01*
X93794105Y-80287594D01*
X93823042Y-80167062D01*
X93848380Y-80061524D01*
X93848381Y-80061518D01*
X93849535Y-80056711D01*
X93868165Y-79820000D01*
X93849535Y-79583289D01*
X93794105Y-79352406D01*
X93750218Y-79246453D01*
X93705135Y-79137611D01*
X93705133Y-79137607D01*
X93703240Y-79133037D01*
X93641951Y-79033023D01*
X93581759Y-78934798D01*
X93581755Y-78934792D01*
X93579176Y-78930584D01*
X93445968Y-78774618D01*
X93428177Y-78753787D01*
X93424969Y-78750031D01*
X93421213Y-78746823D01*
X93421208Y-78746818D01*
X93302944Y-78645811D01*
X93264134Y-78586361D01*
X93263628Y-78515366D01*
X93302944Y-78454189D01*
X93421208Y-78353182D01*
X93421213Y-78353177D01*
X93424969Y-78349969D01*
X93579176Y-78169416D01*
X93581755Y-78165208D01*
X93581759Y-78165202D01*
X93700654Y-77971183D01*
X93703240Y-77966963D01*
X93727549Y-77908277D01*
X93792211Y-77752167D01*
X93792212Y-77752165D01*
X93794105Y-77747594D01*
X93832033Y-77589612D01*
X93848380Y-77521524D01*
X93848381Y-77521518D01*
X93849535Y-77516711D01*
X93868165Y-77280000D01*
X93849535Y-77043289D01*
X93794105Y-76812406D01*
X93750218Y-76706453D01*
X93705135Y-76597611D01*
X93705133Y-76597607D01*
X93703240Y-76593037D01*
X93641951Y-76493023D01*
X93581759Y-76394798D01*
X93581755Y-76394792D01*
X93579176Y-76390584D01*
X93424969Y-76210031D01*
X93421213Y-76206823D01*
X93421208Y-76206818D01*
X93302944Y-76105811D01*
X93264134Y-76046361D01*
X93263628Y-75975366D01*
X93302944Y-75914189D01*
X93421208Y-75813182D01*
X93421213Y-75813177D01*
X93424969Y-75809969D01*
X93579176Y-75629416D01*
X93581755Y-75625208D01*
X93581759Y-75625202D01*
X93700654Y-75431183D01*
X93703240Y-75426963D01*
X93727549Y-75368277D01*
X93792211Y-75212167D01*
X93792212Y-75212165D01*
X93794105Y-75207594D01*
X93832033Y-75049612D01*
X93848380Y-74981524D01*
X93848381Y-74981518D01*
X93849535Y-74976711D01*
X93868165Y-74740000D01*
X93849535Y-74503289D01*
X93794105Y-74272406D01*
X93750218Y-74166453D01*
X93705135Y-74057611D01*
X93705133Y-74057607D01*
X93703240Y-74053037D01*
X93641951Y-73953023D01*
X93581759Y-73854798D01*
X93581755Y-73854792D01*
X93579176Y-73850584D01*
X93424969Y-73670031D01*
X93421213Y-73666823D01*
X93421208Y-73666818D01*
X93302944Y-73565811D01*
X93264134Y-73506361D01*
X93263628Y-73435366D01*
X93302944Y-73374189D01*
X93421208Y-73273182D01*
X93421213Y-73273177D01*
X93424969Y-73269969D01*
X93579176Y-73089416D01*
X93581755Y-73085208D01*
X93581759Y-73085202D01*
X93700654Y-72891183D01*
X93703240Y-72886963D01*
X93727549Y-72828277D01*
X93792211Y-72672167D01*
X93792212Y-72672165D01*
X93794105Y-72667594D01*
X93832033Y-72509612D01*
X93848380Y-72441524D01*
X93848381Y-72441518D01*
X93849535Y-72436711D01*
X93868165Y-72200000D01*
X93849535Y-71963289D01*
X93839236Y-71920388D01*
X93813360Y-71812609D01*
X93794105Y-71732406D01*
X93746167Y-71616672D01*
X93705135Y-71517611D01*
X93705133Y-71517607D01*
X93703240Y-71513037D01*
X93626596Y-71387966D01*
X93581759Y-71314798D01*
X93581755Y-71314792D01*
X93579176Y-71310584D01*
X93424969Y-71130031D01*
X93244416Y-70975824D01*
X93240208Y-70973245D01*
X93240202Y-70973241D01*
X93046183Y-70854346D01*
X93045917Y-70854183D01*
X97724389Y-70854183D01*
X97725912Y-70862607D01*
X97738292Y-70866000D01*
X98787885Y-70866000D01*
X98803124Y-70861525D01*
X98804329Y-70860135D01*
X98806000Y-70852452D01*
X98806000Y-70847885D01*
X99314000Y-70847885D01*
X99318475Y-70863124D01*
X99319865Y-70864329D01*
X99327548Y-70866000D01*
X100378344Y-70866000D01*
X100391875Y-70862027D01*
X100393180Y-70852947D01*
X100351214Y-70685875D01*
X100347894Y-70676124D01*
X100262972Y-70480814D01*
X100258105Y-70471739D01*
X100142426Y-70292926D01*
X100136136Y-70284757D01*
X99992806Y-70127240D01*
X99985273Y-70120215D01*
X99818139Y-69988222D01*
X99809552Y-69982517D01*
X99623117Y-69879599D01*
X99613705Y-69875369D01*
X99412959Y-69804280D01*
X99402988Y-69801646D01*
X99331837Y-69788972D01*
X99318540Y-69790432D01*
X99314000Y-69804989D01*
X99314000Y-70847885D01*
X98806000Y-70847885D01*
X98806000Y-69803102D01*
X98802082Y-69789758D01*
X98787806Y-69787771D01*
X98749324Y-69793660D01*
X98739288Y-69796051D01*
X98536868Y-69862212D01*
X98527359Y-69866209D01*
X98338463Y-69964542D01*
X98329738Y-69970036D01*
X98159433Y-70097905D01*
X98151726Y-70104748D01*
X98004590Y-70258717D01*
X97998104Y-70266727D01*
X97878098Y-70442649D01*
X97873000Y-70451623D01*
X97783338Y-70644783D01*
X97779775Y-70654470D01*
X97724389Y-70854183D01*
X93045917Y-70854183D01*
X93041963Y-70851760D01*
X93037393Y-70849867D01*
X93037389Y-70849865D01*
X92960646Y-70818078D01*
X92870594Y-70780777D01*
X92815314Y-70736230D01*
X92792893Y-70668867D01*
X92810451Y-70600075D01*
X92859659Y-70553118D01*
X92952338Y-70503839D01*
X93001942Y-70477464D01*
X93009822Y-70471739D01*
X93225629Y-70314947D01*
X93225632Y-70314944D01*
X93229192Y-70312358D01*
X93249315Y-70292926D01*
X93428087Y-70120287D01*
X93431252Y-70117231D01*
X93604188Y-69895882D01*
X93606384Y-69892078D01*
X93606389Y-69892071D01*
X93742435Y-69656431D01*
X93744636Y-69652619D01*
X93849862Y-69392176D01*
X93883544Y-69257087D01*
X93916753Y-69123893D01*
X93916754Y-69123888D01*
X93917817Y-69119624D01*
X93947178Y-68840267D01*
X93937375Y-68559542D01*
X93913608Y-68424749D01*
X93889360Y-68287236D01*
X93888598Y-68282913D01*
X93801797Y-68015765D01*
X93678660Y-67763298D01*
X93676205Y-67759659D01*
X93676202Y-67759653D01*
X93595935Y-67640653D01*
X93521585Y-67530424D01*
X93333629Y-67321678D01*
X93118450Y-67141121D01*
X92880236Y-66992269D01*
X92623625Y-66878018D01*
X92353610Y-66800593D01*
X92349260Y-66799982D01*
X92349257Y-66799981D01*
X92232328Y-66783548D01*
X92075448Y-66761500D01*
X91864854Y-66761500D01*
X91862668Y-66761653D01*
X91862664Y-66761653D01*
X91659173Y-66775882D01*
X91659168Y-66775883D01*
X91654788Y-66776189D01*
X91380030Y-66834591D01*
X91375901Y-66836094D01*
X91375897Y-66836095D01*
X91120219Y-66929154D01*
X91120215Y-66929156D01*
X91116074Y-66930663D01*
X90868058Y-67062536D01*
X90864499Y-67065122D01*
X90864497Y-67065123D01*
X90759895Y-67141121D01*
X90640808Y-67227642D01*
X90438748Y-67422769D01*
X90265812Y-67644118D01*
X90263616Y-67647922D01*
X90263611Y-67647929D01*
X90160575Y-67826393D01*
X90125364Y-67887381D01*
X90020138Y-68147824D01*
X90019073Y-68152097D01*
X90019072Y-68152099D01*
X89985379Y-68287236D01*
X89952183Y-68420376D01*
X89922822Y-68699733D01*
X88900000Y-68699733D01*
X88900000Y-66166000D01*
X88920002Y-66097879D01*
X88973658Y-66051386D01*
X89026000Y-66040000D01*
X114174000Y-66040000D01*
X114242121Y-66060002D01*
X114288614Y-66113658D01*
X114300000Y-66166000D01*
X114300000Y-85621718D01*
X114293489Y-85661698D01*
X114242765Y-85813295D01*
X114242760Y-85813312D01*
X114242176Y-85815057D01*
X114241695Y-85816840D01*
X114241694Y-85816843D01*
X114191434Y-86003115D01*
X114077204Y-86426469D01*
X113948783Y-87046589D01*
X113857366Y-87673233D01*
X113803273Y-88304196D01*
X113803224Y-88306054D01*
X113803224Y-88306060D01*
X113795156Y-88614189D01*
X113787672Y-88900000D01*
X113786696Y-88937257D01*
X113786757Y-88939094D01*
X113786757Y-88939109D01*
X113791782Y-89090584D01*
X113807692Y-89570186D01*
X113824208Y-89748223D01*
X113854843Y-90078447D01*
X113866189Y-90200756D01*
X113961979Y-90826747D01*
X114094725Y-91445956D01*
X114263962Y-92056201D01*
X114264562Y-92057953D01*
X114293207Y-92141619D01*
X114300000Y-92182432D01*
X114300000Y-116714000D01*
X114279998Y-116782121D01*
X114226342Y-116828614D01*
X114174000Y-116840000D01*
X93825822Y-116840000D01*
X93757701Y-116819998D01*
X93711208Y-116766342D01*
X93701104Y-116696068D01*
X93716703Y-116651000D01*
X93742435Y-116606431D01*
X93744636Y-116602619D01*
X93849862Y-116342176D01*
X93883544Y-116207087D01*
X93916753Y-116073893D01*
X93916754Y-116073888D01*
X93917817Y-116069624D01*
X93924574Y-116005342D01*
X93946719Y-115794636D01*
X93946719Y-115794633D01*
X93947178Y-115790267D01*
X93937375Y-115509542D01*
X93914368Y-115379059D01*
X93889360Y-115237236D01*
X93888598Y-115232913D01*
X93801797Y-114965765D01*
X93678660Y-114713298D01*
X93676205Y-114709659D01*
X93676202Y-114709653D01*
X93595935Y-114590653D01*
X93521585Y-114480424D01*
X93333629Y-114271678D01*
X93118450Y-114091121D01*
X92880236Y-113942269D01*
X92623625Y-113828018D01*
X92353610Y-113750593D01*
X92349260Y-113749982D01*
X92349257Y-113749981D01*
X92246310Y-113735513D01*
X92075448Y-113711500D01*
X91864854Y-113711500D01*
X91862668Y-113711653D01*
X91862664Y-113711653D01*
X91659173Y-113725882D01*
X91659168Y-113725883D01*
X91654788Y-113726189D01*
X91380030Y-113784591D01*
X91375901Y-113786094D01*
X91375897Y-113786095D01*
X91120219Y-113879154D01*
X91120215Y-113879156D01*
X91116074Y-113880663D01*
X90868058Y-114012536D01*
X90864499Y-114015122D01*
X90864497Y-114015123D01*
X90759895Y-114091121D01*
X90640808Y-114177642D01*
X90438748Y-114372769D01*
X90265812Y-114594118D01*
X90263616Y-114597922D01*
X90263611Y-114597929D01*
X90176905Y-114748109D01*
X90125364Y-114837381D01*
X90020138Y-115097824D01*
X90019073Y-115102097D01*
X90019072Y-115102099D01*
X89985379Y-115237236D01*
X89952183Y-115370376D01*
X89922822Y-115649733D01*
X89932625Y-115930458D01*
X89933387Y-115934781D01*
X89933388Y-115934788D01*
X89957164Y-116069624D01*
X89981402Y-116207087D01*
X90068203Y-116474235D01*
X90154418Y-116651000D01*
X90158205Y-116658765D01*
X90170090Y-116728760D01*
X90142245Y-116794068D01*
X90083513Y-116833956D01*
X90044957Y-116840000D01*
X69315822Y-116840000D01*
X69247701Y-116819998D01*
X69201208Y-116766342D01*
X69191104Y-116696068D01*
X69206703Y-116651000D01*
X69232435Y-116606431D01*
X69234636Y-116602619D01*
X69339862Y-116342176D01*
X69373544Y-116207087D01*
X69406753Y-116073893D01*
X69406754Y-116073888D01*
X69407817Y-116069624D01*
X69414574Y-116005342D01*
X69436719Y-115794636D01*
X69436719Y-115794633D01*
X69437178Y-115790267D01*
X69427375Y-115509542D01*
X69404368Y-115379059D01*
X69379360Y-115237236D01*
X69378598Y-115232913D01*
X69291797Y-114965765D01*
X69168660Y-114713298D01*
X69166205Y-114709659D01*
X69166202Y-114709653D01*
X69085935Y-114590653D01*
X69011585Y-114480424D01*
X68823629Y-114271678D01*
X68608450Y-114091121D01*
X68370236Y-113942269D01*
X68113625Y-113828018D01*
X67843610Y-113750593D01*
X67839260Y-113749982D01*
X67839257Y-113749981D01*
X67736310Y-113735513D01*
X67565448Y-113711500D01*
X67354854Y-113711500D01*
X67352668Y-113711653D01*
X67352664Y-113711653D01*
X67149173Y-113725882D01*
X67149168Y-113725883D01*
X67144788Y-113726189D01*
X66870030Y-113784591D01*
X66865901Y-113786094D01*
X66865897Y-113786095D01*
X66610219Y-113879154D01*
X66610215Y-113879156D01*
X66606074Y-113880663D01*
X66358058Y-114012536D01*
X66354499Y-114015122D01*
X66354497Y-114015123D01*
X66249895Y-114091121D01*
X66130808Y-114177642D01*
X65928748Y-114372769D01*
X65755812Y-114594118D01*
X65753616Y-114597922D01*
X65753611Y-114597929D01*
X65666905Y-114748109D01*
X65615364Y-114837381D01*
X65510138Y-115097824D01*
X65509073Y-115102097D01*
X65509072Y-115102099D01*
X65475379Y-115237236D01*
X65442183Y-115370376D01*
X65412822Y-115649733D01*
X65422625Y-115930458D01*
X65423387Y-115934781D01*
X65423388Y-115934788D01*
X65447164Y-116069624D01*
X65471402Y-116207087D01*
X65558203Y-116474235D01*
X65644418Y-116651000D01*
X65648205Y-116658765D01*
X65660090Y-116728760D01*
X65632245Y-116794068D01*
X65573513Y-116833956D01*
X65534957Y-116840000D01*
X63626000Y-116840000D01*
X63557879Y-116819998D01*
X63511386Y-116766342D01*
X63500000Y-116714000D01*
X63500000Y-107760000D01*
X65441835Y-107760000D01*
X65460465Y-107996711D01*
X65461619Y-108001518D01*
X65461620Y-108001524D01*
X65496640Y-108147391D01*
X65515895Y-108227594D01*
X65606760Y-108446963D01*
X65609346Y-108451183D01*
X65728241Y-108645202D01*
X65728245Y-108645208D01*
X65730824Y-108649416D01*
X65885031Y-108829969D01*
X66065584Y-108984176D01*
X66069792Y-108986755D01*
X66069798Y-108986759D01*
X66263817Y-109105654D01*
X66268037Y-109108240D01*
X66272607Y-109110133D01*
X66272611Y-109110135D01*
X66482833Y-109197211D01*
X66487406Y-109199105D01*
X66535349Y-109210615D01*
X66713476Y-109253380D01*
X66713482Y-109253381D01*
X66718289Y-109254535D01*
X66955000Y-109273165D01*
X67191711Y-109254535D01*
X67196518Y-109253381D01*
X67196524Y-109253380D01*
X67374651Y-109210615D01*
X67422594Y-109199105D01*
X67427167Y-109197211D01*
X67637389Y-109110135D01*
X67637393Y-109110133D01*
X67641963Y-109108240D01*
X67646183Y-109105654D01*
X67840202Y-108986759D01*
X67840208Y-108986755D01*
X67844416Y-108984176D01*
X68024969Y-108829969D01*
X68179176Y-108649416D01*
X68181755Y-108645208D01*
X68181759Y-108645202D01*
X68300654Y-108451183D01*
X68303240Y-108446963D01*
X68394105Y-108227594D01*
X68413360Y-108147391D01*
X68448380Y-108001524D01*
X68448381Y-108001518D01*
X68449535Y-107996711D01*
X68468165Y-107760000D01*
X68449535Y-107523289D01*
X68447074Y-107513036D01*
X68395693Y-107299020D01*
X68394105Y-107292406D01*
X68350141Y-107186267D01*
X68305135Y-107077611D01*
X68305133Y-107077607D01*
X68303240Y-107073037D01*
X68241882Y-106972910D01*
X68181759Y-106874798D01*
X68181755Y-106874792D01*
X68179176Y-106870584D01*
X68024969Y-106690031D01*
X68021213Y-106686823D01*
X68021208Y-106686818D01*
X67868384Y-106556294D01*
X67829574Y-106496844D01*
X67827360Y-106462442D01*
X67819123Y-106443333D01*
X66967812Y-105592022D01*
X66953868Y-105584408D01*
X66952035Y-105584539D01*
X66945420Y-105588790D01*
X66093920Y-106440290D01*
X66084740Y-106457102D01*
X66070980Y-106520350D01*
X66042224Y-106555775D01*
X65941781Y-106641562D01*
X65885031Y-106690031D01*
X65730824Y-106870584D01*
X65728245Y-106874792D01*
X65728241Y-106874798D01*
X65668118Y-106972910D01*
X65606760Y-107073037D01*
X65604867Y-107077607D01*
X65604865Y-107077611D01*
X65559859Y-107186267D01*
X65515895Y-107292406D01*
X65514307Y-107299020D01*
X65462927Y-107513036D01*
X65460465Y-107523289D01*
X65441835Y-107760000D01*
X63500000Y-107760000D01*
X63500000Y-105224930D01*
X65442725Y-105224930D01*
X65460572Y-105451699D01*
X65462115Y-105461446D01*
X65515217Y-105682627D01*
X65518266Y-105692012D01*
X65605313Y-105902163D01*
X65609795Y-105910958D01*
X65712432Y-106078445D01*
X65722890Y-106087907D01*
X65731666Y-106084124D01*
X66582978Y-105232812D01*
X66589356Y-105221132D01*
X67319408Y-105221132D01*
X67319539Y-105222965D01*
X67323790Y-105229580D01*
X68175290Y-106081080D01*
X68187670Y-106087840D01*
X68195320Y-106082113D01*
X68300205Y-105910958D01*
X68304687Y-105902163D01*
X68391734Y-105692012D01*
X68394783Y-105682627D01*
X68447885Y-105461446D01*
X68449428Y-105451699D01*
X68467275Y-105224930D01*
X90842725Y-105224930D01*
X90860572Y-105451699D01*
X90862115Y-105461446D01*
X90915217Y-105682627D01*
X90918266Y-105692012D01*
X91005313Y-105902163D01*
X91009795Y-105910958D01*
X91128643Y-106104899D01*
X91134443Y-106112883D01*
X91140619Y-106120114D01*
X91169651Y-106184904D01*
X91159047Y-106255104D01*
X91112823Y-106307688D01*
X91108295Y-106309385D01*
X90991739Y-106396739D01*
X90904385Y-106513295D01*
X90853255Y-106649684D01*
X90846500Y-106711866D01*
X90846500Y-108808134D01*
X90853255Y-108870316D01*
X90904385Y-109006705D01*
X90991739Y-109123261D01*
X91108295Y-109210615D01*
X91244684Y-109261745D01*
X91306866Y-109268500D01*
X93403134Y-109268500D01*
X93465316Y-109261745D01*
X93601705Y-109210615D01*
X93718261Y-109123261D01*
X93805615Y-109006705D01*
X93856745Y-108870316D01*
X93863500Y-108808134D01*
X93863500Y-106711866D01*
X93856745Y-106649684D01*
X93855624Y-106646695D01*
X97697251Y-106646695D01*
X97697548Y-106651848D01*
X97697548Y-106651851D01*
X97703011Y-106746590D01*
X97710110Y-106869715D01*
X97711247Y-106874761D01*
X97711248Y-106874767D01*
X97725449Y-106937778D01*
X97759222Y-107087639D01*
X97843266Y-107294616D01*
X97959987Y-107485088D01*
X98106250Y-107653938D01*
X98278126Y-107796632D01*
X98471000Y-107909338D01*
X98679692Y-107989030D01*
X98684760Y-107990061D01*
X98684763Y-107990062D01*
X98779862Y-108009410D01*
X98898597Y-108033567D01*
X98903772Y-108033757D01*
X98903774Y-108033757D01*
X99116673Y-108041564D01*
X99116677Y-108041564D01*
X99121837Y-108041753D01*
X99126957Y-108041097D01*
X99126959Y-108041097D01*
X99338288Y-108014025D01*
X99338289Y-108014025D01*
X99343416Y-108013368D01*
X99348366Y-108011883D01*
X99552429Y-107950661D01*
X99552434Y-107950659D01*
X99557384Y-107949174D01*
X99757994Y-107850896D01*
X99939860Y-107721173D01*
X100098096Y-107563489D01*
X100126983Y-107523289D01*
X100228453Y-107382077D01*
X100229640Y-107382930D01*
X100276960Y-107339362D01*
X100346897Y-107327145D01*
X100412338Y-107354678D01*
X100440166Y-107386511D01*
X100497694Y-107480388D01*
X100503777Y-107488699D01*
X100643213Y-107649667D01*
X100650580Y-107656883D01*
X100814434Y-107792916D01*
X100822881Y-107798831D01*
X101006756Y-107906279D01*
X101016042Y-107910729D01*
X101215001Y-107986703D01*
X101224899Y-107989579D01*
X101328250Y-108010606D01*
X101342299Y-108009410D01*
X101346000Y-107999065D01*
X101346000Y-107998517D01*
X101854000Y-107998517D01*
X101858064Y-108012359D01*
X101871478Y-108014393D01*
X101878184Y-108013534D01*
X101888262Y-108011392D01*
X102092255Y-107950191D01*
X102101842Y-107946433D01*
X102293095Y-107852739D01*
X102301945Y-107847464D01*
X102475328Y-107723792D01*
X102483193Y-107717145D01*
X102587897Y-107612805D01*
X102650268Y-107578889D01*
X102721075Y-107584077D01*
X102777837Y-107626723D01*
X102794819Y-107657826D01*
X102839385Y-107776705D01*
X102926739Y-107893261D01*
X103043295Y-107980615D01*
X103179684Y-108031745D01*
X103241866Y-108038500D01*
X105038134Y-108038500D01*
X105100316Y-108031745D01*
X105236705Y-107980615D01*
X105353261Y-107893261D01*
X105440615Y-107776705D01*
X105491745Y-107640316D01*
X105498500Y-107578134D01*
X105498500Y-106947966D01*
X107888257Y-106947966D01*
X107918565Y-107082446D01*
X107921645Y-107092275D01*
X108001770Y-107289603D01*
X108006413Y-107298794D01*
X108117694Y-107480388D01*
X108123777Y-107488699D01*
X108263213Y-107649667D01*
X108270580Y-107656883D01*
X108434434Y-107792916D01*
X108442881Y-107798831D01*
X108626756Y-107906279D01*
X108636042Y-107910729D01*
X108835001Y-107986703D01*
X108844899Y-107989579D01*
X108948250Y-108010606D01*
X108962299Y-108009410D01*
X108966000Y-107999065D01*
X108966000Y-107998517D01*
X109474000Y-107998517D01*
X109478064Y-108012359D01*
X109491478Y-108014393D01*
X109498184Y-108013534D01*
X109508262Y-108011392D01*
X109712255Y-107950191D01*
X109721842Y-107946433D01*
X109913095Y-107852739D01*
X109921945Y-107847464D01*
X110095328Y-107723792D01*
X110103200Y-107717139D01*
X110254052Y-107566812D01*
X110260730Y-107558965D01*
X110385003Y-107386020D01*
X110390313Y-107377183D01*
X110484670Y-107186267D01*
X110488469Y-107176672D01*
X110550377Y-106972910D01*
X110552555Y-106962837D01*
X110553986Y-106951962D01*
X110551775Y-106937778D01*
X110538617Y-106934000D01*
X109492115Y-106934000D01*
X109476876Y-106938475D01*
X109475671Y-106939865D01*
X109474000Y-106947548D01*
X109474000Y-107998517D01*
X108966000Y-107998517D01*
X108966000Y-106952115D01*
X108961525Y-106936876D01*
X108960135Y-106935671D01*
X108952452Y-106934000D01*
X107903225Y-106934000D01*
X107889694Y-106937973D01*
X107888257Y-106947966D01*
X105498500Y-106947966D01*
X105498500Y-105781866D01*
X105491745Y-105719684D01*
X105440615Y-105583295D01*
X105353261Y-105466739D01*
X105236705Y-105379385D01*
X105100316Y-105328255D01*
X105038134Y-105321500D01*
X103241866Y-105321500D01*
X103179684Y-105328255D01*
X103043295Y-105379385D01*
X102926739Y-105466739D01*
X102839385Y-105583295D01*
X102836233Y-105591703D01*
X102836232Y-105591705D01*
X102794722Y-105702433D01*
X102752081Y-105759198D01*
X102685519Y-105783898D01*
X102616170Y-105768691D01*
X102583546Y-105743004D01*
X102532799Y-105687234D01*
X102525273Y-105680215D01*
X102358139Y-105548222D01*
X102349552Y-105542517D01*
X102163117Y-105439599D01*
X102153705Y-105435369D01*
X101952959Y-105364280D01*
X101942988Y-105361646D01*
X101871837Y-105348972D01*
X101858540Y-105350432D01*
X101854000Y-105364989D01*
X101854000Y-107998517D01*
X101346000Y-107998517D01*
X101346000Y-105363102D01*
X101342082Y-105349758D01*
X101327806Y-105347771D01*
X101289324Y-105353660D01*
X101279288Y-105356051D01*
X101076868Y-105422212D01*
X101067359Y-105426209D01*
X100878463Y-105524542D01*
X100869738Y-105530036D01*
X100699433Y-105657905D01*
X100691726Y-105664748D01*
X100544590Y-105818717D01*
X100538109Y-105826722D01*
X100433498Y-105980074D01*
X100378587Y-106025076D01*
X100308062Y-106033247D01*
X100244315Y-106001993D01*
X100223618Y-105977509D01*
X100142822Y-105852617D01*
X100142820Y-105852614D01*
X100140014Y-105848277D01*
X99989670Y-105683051D01*
X99985619Y-105679852D01*
X99985615Y-105679848D01*
X99818414Y-105547800D01*
X99818410Y-105547798D01*
X99814359Y-105544598D01*
X99809835Y-105542101D01*
X99809831Y-105542098D01*
X99758608Y-105513822D01*
X99708636Y-105463390D01*
X99693500Y-105403513D01*
X99693500Y-105038134D01*
X107861500Y-105038134D01*
X107868255Y-105100316D01*
X107919385Y-105236705D01*
X108006739Y-105353261D01*
X108123295Y-105440615D01*
X108131704Y-105443767D01*
X108131705Y-105443768D01*
X108240960Y-105484726D01*
X108297725Y-105527367D01*
X108322425Y-105593929D01*
X108307218Y-105663278D01*
X108287825Y-105689759D01*
X108164590Y-105818717D01*
X108158104Y-105826727D01*
X108038098Y-106002649D01*
X108033000Y-106011623D01*
X107943338Y-106204783D01*
X107939775Y-106214470D01*
X107884389Y-106414183D01*
X107885912Y-106422607D01*
X107898292Y-106426000D01*
X110538344Y-106426000D01*
X110551875Y-106422027D01*
X110553180Y-106412947D01*
X110511214Y-106245875D01*
X110507894Y-106236124D01*
X110422972Y-106040814D01*
X110418105Y-106031739D01*
X110302426Y-105852926D01*
X110296136Y-105844757D01*
X110152293Y-105686677D01*
X110121241Y-105622831D01*
X110129635Y-105552333D01*
X110174812Y-105497564D01*
X110201256Y-105483895D01*
X110308297Y-105443767D01*
X110316705Y-105440615D01*
X110433261Y-105353261D01*
X110520615Y-105236705D01*
X110571745Y-105100316D01*
X110578500Y-105038134D01*
X110578500Y-103241866D01*
X110571745Y-103179684D01*
X110520615Y-103043295D01*
X110433261Y-102926739D01*
X110316705Y-102839385D01*
X110180316Y-102788255D01*
X110118134Y-102781500D01*
X108321866Y-102781500D01*
X108259684Y-102788255D01*
X108123295Y-102839385D01*
X108006739Y-102926739D01*
X107919385Y-103043295D01*
X107868255Y-103179684D01*
X107861500Y-103241866D01*
X107861500Y-105038134D01*
X99693500Y-105038134D01*
X99693500Y-91406695D01*
X105317251Y-91406695D01*
X105317548Y-91411848D01*
X105317548Y-91411851D01*
X105323011Y-91506590D01*
X105330110Y-91629715D01*
X105331247Y-91634761D01*
X105331248Y-91634767D01*
X105351119Y-91722939D01*
X105379222Y-91847639D01*
X105463266Y-92054616D01*
X105579987Y-92245088D01*
X105726250Y-92413938D01*
X105898126Y-92556632D01*
X106091000Y-92669338D01*
X106299692Y-92749030D01*
X106304760Y-92750061D01*
X106304763Y-92750062D01*
X106412017Y-92771883D01*
X106518597Y-92793567D01*
X106523772Y-92793757D01*
X106523774Y-92793757D01*
X106736673Y-92801564D01*
X106736677Y-92801564D01*
X106741837Y-92801753D01*
X106746957Y-92801097D01*
X106746959Y-92801097D01*
X106958288Y-92774025D01*
X106958289Y-92774025D01*
X106963416Y-92773368D01*
X107002894Y-92761524D01*
X107172429Y-92710661D01*
X107172434Y-92710659D01*
X107177384Y-92709174D01*
X107377994Y-92610896D01*
X107559860Y-92481173D01*
X107718096Y-92323489D01*
X107746983Y-92283289D01*
X107845435Y-92146277D01*
X107848453Y-92142077D01*
X107890030Y-92057953D01*
X107945136Y-91946453D01*
X107945137Y-91946451D01*
X107947430Y-91941811D01*
X108012370Y-91728069D01*
X108041529Y-91506590D01*
X108042966Y-91447772D01*
X108043074Y-91443365D01*
X108043074Y-91443361D01*
X108043156Y-91440000D01*
X108024852Y-91217361D01*
X107970431Y-91000702D01*
X107881354Y-90795840D01*
X107760014Y-90608277D01*
X107756532Y-90604450D01*
X107612798Y-90446488D01*
X107581746Y-90382642D01*
X107590141Y-90312143D01*
X107635317Y-90257375D01*
X107661761Y-90243706D01*
X107768297Y-90203767D01*
X107776705Y-90200615D01*
X107893261Y-90113261D01*
X107980615Y-89996705D01*
X108031745Y-89860316D01*
X108038500Y-89798134D01*
X108038500Y-88001866D01*
X108031745Y-87939684D01*
X107980615Y-87803295D01*
X107893261Y-87686739D01*
X107776705Y-87599385D01*
X107640316Y-87548255D01*
X107578134Y-87541500D01*
X105781866Y-87541500D01*
X105719684Y-87548255D01*
X105583295Y-87599385D01*
X105466739Y-87686739D01*
X105379385Y-87803295D01*
X105328255Y-87939684D01*
X105321500Y-88001866D01*
X105321500Y-89798134D01*
X105328255Y-89860316D01*
X105379385Y-89996705D01*
X105466739Y-90113261D01*
X105583295Y-90200615D01*
X105591704Y-90203767D01*
X105591705Y-90203768D01*
X105700451Y-90244535D01*
X105757216Y-90287176D01*
X105781916Y-90353738D01*
X105766709Y-90423087D01*
X105747316Y-90449568D01*
X105620629Y-90582138D01*
X105494743Y-90766680D01*
X105400688Y-90969305D01*
X105340989Y-91184570D01*
X105317251Y-91406695D01*
X99693500Y-91406695D01*
X99693500Y-82764500D01*
X99713502Y-82696379D01*
X99767158Y-82649886D01*
X99819500Y-82638500D01*
X99958134Y-82638500D01*
X100020316Y-82631745D01*
X100156705Y-82580615D01*
X100273261Y-82493261D01*
X100360615Y-82376705D01*
X100411745Y-82240316D01*
X100418500Y-82178134D01*
X100418500Y-80381866D01*
X100411745Y-80319684D01*
X100360615Y-80183295D01*
X100273261Y-80066739D01*
X100156705Y-79979385D01*
X100144132Y-79974672D01*
X100038203Y-79934960D01*
X99981439Y-79892318D01*
X99956739Y-79825756D01*
X99971947Y-79756408D01*
X99993493Y-79727727D01*
X100094435Y-79627137D01*
X100098096Y-79623489D01*
X100126983Y-79583289D01*
X100225435Y-79446277D01*
X100228453Y-79442077D01*
X100239634Y-79419455D01*
X100325136Y-79246453D01*
X100325137Y-79246451D01*
X100327430Y-79241811D01*
X100392370Y-79028069D01*
X100421529Y-78806590D01*
X100422078Y-78784118D01*
X100423074Y-78743365D01*
X100423074Y-78743361D01*
X100423156Y-78740000D01*
X100404852Y-78517361D01*
X100350431Y-78300702D01*
X100261354Y-78095840D01*
X100140014Y-77908277D01*
X99989670Y-77743051D01*
X99985619Y-77739852D01*
X99985615Y-77739848D01*
X99818414Y-77607800D01*
X99818410Y-77607798D01*
X99814359Y-77604598D01*
X99773053Y-77581796D01*
X99723084Y-77531364D01*
X99708312Y-77461921D01*
X99733428Y-77395516D01*
X99760780Y-77368909D01*
X99804603Y-77337650D01*
X99939860Y-77241173D01*
X100098096Y-77083489D01*
X100126983Y-77043289D01*
X100225435Y-76906277D01*
X100228453Y-76902077D01*
X100327430Y-76701811D01*
X100392370Y-76488069D01*
X100421529Y-76266590D01*
X100422911Y-76210031D01*
X100423074Y-76203365D01*
X100423074Y-76203361D01*
X100423156Y-76200000D01*
X100404852Y-75977361D01*
X100350431Y-75760702D01*
X100261354Y-75555840D01*
X100140014Y-75368277D01*
X99989670Y-75203051D01*
X99985619Y-75199852D01*
X99985615Y-75199848D01*
X99818414Y-75067800D01*
X99818410Y-75067798D01*
X99814359Y-75064598D01*
X99773053Y-75041796D01*
X99723084Y-74991364D01*
X99708312Y-74921921D01*
X99733428Y-74855516D01*
X99760780Y-74828909D01*
X99804603Y-74797650D01*
X99939860Y-74701173D01*
X100098096Y-74543489D01*
X100126983Y-74503289D01*
X100225435Y-74366277D01*
X100228453Y-74362077D01*
X100327430Y-74161811D01*
X100392370Y-73948069D01*
X100421529Y-73726590D01*
X100422911Y-73670031D01*
X100423074Y-73663365D01*
X100423074Y-73663361D01*
X100423156Y-73660000D01*
X100404852Y-73437361D01*
X100350431Y-73220702D01*
X100261354Y-73015840D01*
X100140014Y-72828277D01*
X99989670Y-72663051D01*
X99985619Y-72659852D01*
X99985615Y-72659848D01*
X99818414Y-72527800D01*
X99818410Y-72527798D01*
X99814359Y-72524598D01*
X99772569Y-72501529D01*
X99722598Y-72451097D01*
X99707826Y-72381654D01*
X99732942Y-72315248D01*
X99760294Y-72288641D01*
X99935328Y-72163792D01*
X99943200Y-72157139D01*
X100094052Y-72006812D01*
X100100730Y-71998965D01*
X100225003Y-71826020D01*
X100230313Y-71817183D01*
X100324670Y-71626267D01*
X100328469Y-71616672D01*
X100390377Y-71412910D01*
X100392555Y-71402837D01*
X100393986Y-71391962D01*
X100391775Y-71377778D01*
X100378617Y-71374000D01*
X97743225Y-71374000D01*
X97729694Y-71377973D01*
X97728257Y-71387966D01*
X97758565Y-71522446D01*
X97761645Y-71532275D01*
X97841770Y-71729603D01*
X97846413Y-71738794D01*
X97957694Y-71920388D01*
X97963777Y-71928699D01*
X98103213Y-72089667D01*
X98110580Y-72096883D01*
X98274434Y-72232916D01*
X98282881Y-72238831D01*
X98351969Y-72279203D01*
X98400693Y-72330842D01*
X98413764Y-72400625D01*
X98387033Y-72466396D01*
X98346584Y-72499752D01*
X98333607Y-72506507D01*
X98329474Y-72509610D01*
X98329471Y-72509612D01*
X98305247Y-72527800D01*
X98154965Y-72640635D01*
X98000629Y-72802138D01*
X97874743Y-72986680D01*
X97780688Y-73189305D01*
X97720989Y-73404570D01*
X97697251Y-73626695D01*
X97697548Y-73631848D01*
X97697548Y-73631851D01*
X97703011Y-73726590D01*
X97710110Y-73849715D01*
X97711247Y-73854761D01*
X97711248Y-73854767D01*
X97731119Y-73942939D01*
X97759222Y-74067639D01*
X97843266Y-74274616D01*
X97959987Y-74465088D01*
X98106250Y-74633938D01*
X98278126Y-74776632D01*
X98348595Y-74817811D01*
X98351445Y-74819476D01*
X98400169Y-74871114D01*
X98413240Y-74940897D01*
X98386509Y-75006669D01*
X98346055Y-75040027D01*
X98333607Y-75046507D01*
X98329474Y-75049610D01*
X98329471Y-75049612D01*
X98305247Y-75067800D01*
X98154965Y-75180635D01*
X98000629Y-75342138D01*
X97874743Y-75526680D01*
X97780688Y-75729305D01*
X97720989Y-75944570D01*
X97697251Y-76166695D01*
X97697548Y-76171848D01*
X97697548Y-76171851D01*
X97703011Y-76266590D01*
X97710110Y-76389715D01*
X97711247Y-76394761D01*
X97711248Y-76394767D01*
X97731119Y-76482939D01*
X97759222Y-76607639D01*
X97843266Y-76814616D01*
X97959987Y-77005088D01*
X98106250Y-77173938D01*
X98278126Y-77316632D01*
X98348595Y-77357811D01*
X98351445Y-77359476D01*
X98400169Y-77411114D01*
X98413240Y-77480897D01*
X98386509Y-77546669D01*
X98346055Y-77580027D01*
X98333607Y-77586507D01*
X98329474Y-77589610D01*
X98329471Y-77589612D01*
X98305247Y-77607800D01*
X98154965Y-77720635D01*
X98000629Y-77882138D01*
X97874743Y-78066680D01*
X97859003Y-78100590D01*
X97798052Y-78231898D01*
X97780688Y-78269305D01*
X97720989Y-78484570D01*
X97697251Y-78706695D01*
X97697548Y-78711848D01*
X97697548Y-78711851D01*
X97703011Y-78806590D01*
X97710110Y-78929715D01*
X97711247Y-78934761D01*
X97711248Y-78934767D01*
X97731119Y-79022939D01*
X97759222Y-79147639D01*
X97843266Y-79354616D01*
X97959987Y-79545088D01*
X98106250Y-79713938D01*
X98110230Y-79717242D01*
X98114981Y-79721187D01*
X98154616Y-79780090D01*
X98156113Y-79851071D01*
X98118997Y-79911593D01*
X98078724Y-79936112D01*
X97963295Y-79979385D01*
X97846739Y-80066739D01*
X97759385Y-80183295D01*
X97708255Y-80319684D01*
X97701500Y-80381866D01*
X97701500Y-82178134D01*
X97708255Y-82240316D01*
X97759385Y-82376705D01*
X97846739Y-82493261D01*
X97963295Y-82580615D01*
X98099684Y-82631745D01*
X98161866Y-82638500D01*
X98300500Y-82638500D01*
X98368621Y-82658502D01*
X98415114Y-82712158D01*
X98426500Y-82764500D01*
X98426500Y-105401692D01*
X98406498Y-105469813D01*
X98358683Y-105513453D01*
X98333607Y-105526507D01*
X98329474Y-105529610D01*
X98329471Y-105529612D01*
X98246771Y-105591705D01*
X98154965Y-105660635D01*
X98000629Y-105822138D01*
X97997715Y-105826410D01*
X97997714Y-105826411D01*
X97985404Y-105844457D01*
X97874743Y-106006680D01*
X97858899Y-106040814D01*
X97792015Y-106184904D01*
X97780688Y-106209305D01*
X97720989Y-106424570D01*
X97697251Y-106646695D01*
X93855624Y-106646695D01*
X93805615Y-106513295D01*
X93718261Y-106396739D01*
X93601705Y-106309385D01*
X93601550Y-106309327D01*
X93554537Y-106262209D01*
X93539522Y-106192818D01*
X93564406Y-106126325D01*
X93569381Y-106120114D01*
X93575557Y-106112883D01*
X93581357Y-106104899D01*
X93700205Y-105910958D01*
X93704687Y-105902163D01*
X93791734Y-105692012D01*
X93794783Y-105682627D01*
X93847885Y-105461446D01*
X93849428Y-105451699D01*
X93867275Y-105224930D01*
X93867275Y-105215070D01*
X93849428Y-104988301D01*
X93847885Y-104978554D01*
X93794783Y-104757373D01*
X93791734Y-104747988D01*
X93704687Y-104537837D01*
X93700205Y-104529042D01*
X93597568Y-104361555D01*
X93587110Y-104352093D01*
X93578334Y-104355876D01*
X92444095Y-105490115D01*
X92381783Y-105524141D01*
X92310968Y-105519076D01*
X92265905Y-105490115D01*
X91134710Y-104358920D01*
X91122330Y-104352160D01*
X91114680Y-104357887D01*
X91009795Y-104529042D01*
X91005313Y-104537837D01*
X90918266Y-104747988D01*
X90915217Y-104757373D01*
X90862115Y-104978554D01*
X90860572Y-104988301D01*
X90842725Y-105215070D01*
X90842725Y-105224930D01*
X68467275Y-105224930D01*
X68467275Y-105215070D01*
X68449428Y-104988301D01*
X68447885Y-104978554D01*
X68394783Y-104757373D01*
X68391734Y-104747988D01*
X68304687Y-104537837D01*
X68300205Y-104529042D01*
X68197568Y-104361555D01*
X68187110Y-104352093D01*
X68178334Y-104355876D01*
X67327022Y-105207188D01*
X67319408Y-105221132D01*
X66589356Y-105221132D01*
X66590592Y-105218868D01*
X66590461Y-105217035D01*
X66586210Y-105210420D01*
X65734710Y-104358920D01*
X65722330Y-104352160D01*
X65714680Y-104357887D01*
X65609795Y-104529042D01*
X65605313Y-104537837D01*
X65518266Y-104747988D01*
X65515217Y-104757373D01*
X65462115Y-104978554D01*
X65460572Y-104988301D01*
X65442725Y-105215070D01*
X65442725Y-105224930D01*
X63500000Y-105224930D01*
X63500000Y-68699733D01*
X65412822Y-68699733D01*
X65422625Y-68980458D01*
X65423387Y-68984781D01*
X65423388Y-68984788D01*
X65447164Y-69119624D01*
X65471402Y-69257087D01*
X65558203Y-69524235D01*
X65681340Y-69776702D01*
X65683795Y-69780341D01*
X65683798Y-69780347D01*
X65750745Y-69879599D01*
X65838415Y-70009576D01*
X66026371Y-70218322D01*
X66241550Y-70398879D01*
X66245282Y-70401211D01*
X66479764Y-70547731D01*
X66478715Y-70549409D01*
X66523687Y-70593378D01*
X66539560Y-70662577D01*
X66515502Y-70729373D01*
X66462006Y-70771416D01*
X66272611Y-70849865D01*
X66272607Y-70849867D01*
X66268037Y-70851760D01*
X66263817Y-70854346D01*
X66069798Y-70973241D01*
X66069792Y-70973245D01*
X66065584Y-70975824D01*
X65885031Y-71130031D01*
X65730824Y-71310584D01*
X65728245Y-71314792D01*
X65728241Y-71314798D01*
X65683404Y-71387966D01*
X65606760Y-71513037D01*
X65604867Y-71517607D01*
X65604865Y-71517611D01*
X65563833Y-71616672D01*
X65515895Y-71732406D01*
X65496640Y-71812609D01*
X65470765Y-71920388D01*
X65460465Y-71963289D01*
X65441835Y-72200000D01*
X65460465Y-72436711D01*
X65461619Y-72441518D01*
X65461620Y-72441524D01*
X65477967Y-72509612D01*
X65515895Y-72667594D01*
X65517788Y-72672165D01*
X65517789Y-72672167D01*
X65582452Y-72828277D01*
X65606760Y-72886963D01*
X65609346Y-72891183D01*
X65728241Y-73085202D01*
X65728245Y-73085208D01*
X65730824Y-73089416D01*
X65885031Y-73269969D01*
X65888787Y-73273177D01*
X65888792Y-73273182D01*
X66007056Y-73374189D01*
X66045866Y-73433639D01*
X66046372Y-73504634D01*
X66007056Y-73565811D01*
X65888792Y-73666818D01*
X65888787Y-73666823D01*
X65885031Y-73670031D01*
X65730824Y-73850584D01*
X65728245Y-73854792D01*
X65728241Y-73854798D01*
X65668049Y-73953023D01*
X65606760Y-74053037D01*
X65604867Y-74057607D01*
X65604865Y-74057611D01*
X65559782Y-74166453D01*
X65515895Y-74272406D01*
X65460465Y-74503289D01*
X65441835Y-74740000D01*
X65460465Y-74976711D01*
X65461619Y-74981518D01*
X65461620Y-74981524D01*
X65477967Y-75049612D01*
X65515895Y-75207594D01*
X65517788Y-75212165D01*
X65517789Y-75212167D01*
X65582452Y-75368277D01*
X65606760Y-75426963D01*
X65609346Y-75431183D01*
X65728241Y-75625202D01*
X65728245Y-75625208D01*
X65730824Y-75629416D01*
X65885031Y-75809969D01*
X65888787Y-75813177D01*
X65888792Y-75813182D01*
X66007056Y-75914189D01*
X66045866Y-75973639D01*
X66046372Y-76044634D01*
X66007056Y-76105811D01*
X65888792Y-76206818D01*
X65888787Y-76206823D01*
X65885031Y-76210031D01*
X65730824Y-76390584D01*
X65728245Y-76394792D01*
X65728241Y-76394798D01*
X65668049Y-76493023D01*
X65606760Y-76593037D01*
X65604867Y-76597607D01*
X65604865Y-76597611D01*
X65559782Y-76706453D01*
X65515895Y-76812406D01*
X65460465Y-77043289D01*
X65441835Y-77280000D01*
X65460465Y-77516711D01*
X65461619Y-77521518D01*
X65461620Y-77521524D01*
X65477967Y-77589612D01*
X65515895Y-77747594D01*
X65517788Y-77752165D01*
X65517789Y-77752167D01*
X65582452Y-77908277D01*
X65606760Y-77966963D01*
X65609346Y-77971183D01*
X65728241Y-78165202D01*
X65728245Y-78165208D01*
X65730824Y-78169416D01*
X65885031Y-78349969D01*
X65888787Y-78353177D01*
X65888792Y-78353182D01*
X66007056Y-78454189D01*
X66045866Y-78513639D01*
X66046372Y-78584634D01*
X66007056Y-78645811D01*
X65888792Y-78746818D01*
X65888787Y-78746823D01*
X65885031Y-78750031D01*
X65881823Y-78753787D01*
X65864032Y-78774618D01*
X65730824Y-78930584D01*
X65728245Y-78934792D01*
X65728241Y-78934798D01*
X65668049Y-79033023D01*
X65606760Y-79133037D01*
X65604867Y-79137607D01*
X65604865Y-79137611D01*
X65559782Y-79246453D01*
X65515895Y-79352406D01*
X65460465Y-79583289D01*
X65441835Y-79820000D01*
X65460465Y-80056711D01*
X65461619Y-80061518D01*
X65461620Y-80061524D01*
X65486958Y-80167062D01*
X65515895Y-80287594D01*
X65517788Y-80292165D01*
X65517789Y-80292167D01*
X65579987Y-80442326D01*
X65606760Y-80506963D01*
X65609346Y-80511183D01*
X65728241Y-80705202D01*
X65728245Y-80705208D01*
X65730824Y-80709416D01*
X65885031Y-80889969D01*
X65888787Y-80893177D01*
X65888792Y-80893182D01*
X66007056Y-80994189D01*
X66045866Y-81053639D01*
X66046372Y-81124634D01*
X66007056Y-81185811D01*
X65888792Y-81286818D01*
X65888787Y-81286823D01*
X65885031Y-81290031D01*
X65730824Y-81470584D01*
X65728245Y-81474792D01*
X65728241Y-81474798D01*
X65721588Y-81485655D01*
X65606760Y-81673037D01*
X65515895Y-81892406D01*
X65460465Y-82123289D01*
X65441835Y-82360000D01*
X65460465Y-82596711D01*
X65461619Y-82601518D01*
X65461620Y-82601524D01*
X65484393Y-82696379D01*
X65515895Y-82827594D01*
X65517788Y-82832165D01*
X65517789Y-82832167D01*
X65571755Y-82962452D01*
X65606760Y-83046963D01*
X65609346Y-83051183D01*
X65728241Y-83245202D01*
X65728245Y-83245208D01*
X65730824Y-83249416D01*
X65885031Y-83429969D01*
X65888787Y-83433177D01*
X65888792Y-83433182D01*
X66007056Y-83534189D01*
X66045866Y-83593639D01*
X66046372Y-83664634D01*
X66007056Y-83725811D01*
X65888792Y-83826818D01*
X65888787Y-83826823D01*
X65885031Y-83830031D01*
X65730824Y-84010584D01*
X65728245Y-84014792D01*
X65728241Y-84014798D01*
X65724303Y-84021225D01*
X65606760Y-84213037D01*
X65515895Y-84432406D01*
X65514740Y-84437218D01*
X65469195Y-84626927D01*
X65460465Y-84663289D01*
X65441835Y-84900000D01*
X65460465Y-85136711D01*
X65461619Y-85141518D01*
X65461620Y-85141524D01*
X65496640Y-85287391D01*
X65515895Y-85367594D01*
X65606760Y-85586963D01*
X65609346Y-85591183D01*
X65728241Y-85785202D01*
X65728245Y-85785208D01*
X65730824Y-85789416D01*
X65885031Y-85969969D01*
X65888787Y-85973177D01*
X65888792Y-85973182D01*
X66007056Y-86074189D01*
X66045866Y-86133639D01*
X66046372Y-86204634D01*
X66007056Y-86265811D01*
X65888792Y-86366818D01*
X65888787Y-86366823D01*
X65885031Y-86370031D01*
X65730824Y-86550584D01*
X65728245Y-86554792D01*
X65728241Y-86554798D01*
X65609346Y-86748817D01*
X65606760Y-86753037D01*
X65515895Y-86972406D01*
X65514740Y-86977218D01*
X65467703Y-87173141D01*
X65460465Y-87203289D01*
X65441835Y-87440000D01*
X65460465Y-87676711D01*
X65461619Y-87681518D01*
X65461620Y-87681524D01*
X65463738Y-87690346D01*
X65515895Y-87907594D01*
X65606760Y-88126963D01*
X65609346Y-88131183D01*
X65728241Y-88325202D01*
X65728245Y-88325208D01*
X65730824Y-88329416D01*
X65885031Y-88509969D01*
X65888787Y-88513177D01*
X65888792Y-88513182D01*
X66007056Y-88614189D01*
X66045866Y-88673639D01*
X66046372Y-88744634D01*
X66007056Y-88805811D01*
X65888792Y-88906818D01*
X65888787Y-88906823D01*
X65885031Y-88910031D01*
X65730824Y-89090584D01*
X65728245Y-89094792D01*
X65728241Y-89094798D01*
X65609346Y-89288817D01*
X65606760Y-89293037D01*
X65604867Y-89297607D01*
X65604865Y-89297611D01*
X65518539Y-89506023D01*
X65515895Y-89512406D01*
X65460465Y-89743289D01*
X65441835Y-89980000D01*
X65460465Y-90216711D01*
X65461619Y-90221518D01*
X65461620Y-90221524D01*
X65477382Y-90287176D01*
X65515895Y-90447594D01*
X65517788Y-90452165D01*
X65517789Y-90452167D01*
X65582452Y-90608277D01*
X65606760Y-90666963D01*
X65609346Y-90671183D01*
X65728241Y-90865202D01*
X65728245Y-90865208D01*
X65730824Y-90869416D01*
X65885031Y-91049969D01*
X65888787Y-91053177D01*
X65888792Y-91053182D01*
X66007056Y-91154189D01*
X66045866Y-91213639D01*
X66046372Y-91284634D01*
X66007056Y-91345811D01*
X65888792Y-91446818D01*
X65888787Y-91446823D01*
X65885031Y-91450031D01*
X65730824Y-91630584D01*
X65728245Y-91634792D01*
X65728241Y-91634798D01*
X65668049Y-91733023D01*
X65606760Y-91833037D01*
X65604867Y-91837607D01*
X65604865Y-91837611D01*
X65559782Y-91946453D01*
X65515895Y-92052406D01*
X65514307Y-92059020D01*
X65484679Y-92182432D01*
X65460465Y-92283289D01*
X65441835Y-92520000D01*
X65460465Y-92756711D01*
X65461619Y-92761518D01*
X65461620Y-92761524D01*
X65496640Y-92907391D01*
X65515895Y-92987594D01*
X65606760Y-93206963D01*
X65609346Y-93211183D01*
X65728241Y-93405202D01*
X65728245Y-93405208D01*
X65730824Y-93409416D01*
X65885031Y-93589969D01*
X65888787Y-93593177D01*
X65888792Y-93593182D01*
X66007056Y-93694189D01*
X66045866Y-93753639D01*
X66046372Y-93824634D01*
X66007056Y-93885811D01*
X65888792Y-93986818D01*
X65888787Y-93986823D01*
X65885031Y-93990031D01*
X65730824Y-94170584D01*
X65728245Y-94174792D01*
X65728241Y-94174798D01*
X65659838Y-94286422D01*
X65606760Y-94373037D01*
X65515895Y-94592406D01*
X65460465Y-94823289D01*
X65441835Y-95060000D01*
X65460465Y-95296711D01*
X65515895Y-95527594D01*
X65606760Y-95746963D01*
X65609346Y-95751183D01*
X65728241Y-95945202D01*
X65728245Y-95945208D01*
X65730824Y-95949416D01*
X65885031Y-96129969D01*
X65888787Y-96133177D01*
X65888792Y-96133182D01*
X66007056Y-96234189D01*
X66045866Y-96293639D01*
X66046372Y-96364634D01*
X66007056Y-96425811D01*
X65888792Y-96526818D01*
X65888787Y-96526823D01*
X65885031Y-96530031D01*
X65730824Y-96710584D01*
X65728245Y-96714792D01*
X65728241Y-96714798D01*
X65628914Y-96876885D01*
X65606760Y-96913037D01*
X65515895Y-97132406D01*
X65460465Y-97363289D01*
X65441835Y-97600000D01*
X65460465Y-97836711D01*
X65461619Y-97841518D01*
X65461620Y-97841524D01*
X65496640Y-97987391D01*
X65515895Y-98067594D01*
X65517788Y-98072165D01*
X65517789Y-98072167D01*
X65600163Y-98271036D01*
X65606760Y-98286963D01*
X65609346Y-98291183D01*
X65728241Y-98485202D01*
X65728245Y-98485208D01*
X65730824Y-98489416D01*
X65885031Y-98669969D01*
X65888787Y-98673177D01*
X65888792Y-98673182D01*
X66007056Y-98774189D01*
X66045866Y-98833639D01*
X66046372Y-98904634D01*
X66007056Y-98965811D01*
X65888792Y-99066818D01*
X65888787Y-99066823D01*
X65885031Y-99070031D01*
X65730824Y-99250584D01*
X65728245Y-99254792D01*
X65728241Y-99254798D01*
X65680735Y-99332321D01*
X65606760Y-99453037D01*
X65604867Y-99457607D01*
X65604865Y-99457611D01*
X65576538Y-99526000D01*
X65515895Y-99672406D01*
X65460465Y-99903289D01*
X65441835Y-100140000D01*
X65460465Y-100376711D01*
X65515895Y-100607594D01*
X65606760Y-100826963D01*
X65609346Y-100831183D01*
X65728241Y-101025202D01*
X65728245Y-101025208D01*
X65730824Y-101029416D01*
X65885031Y-101209969D01*
X65888787Y-101213177D01*
X65888792Y-101213182D01*
X66007056Y-101314189D01*
X66045866Y-101373639D01*
X66046372Y-101444634D01*
X66007056Y-101505811D01*
X65888792Y-101606818D01*
X65888787Y-101606823D01*
X65885031Y-101610031D01*
X65730824Y-101790584D01*
X65728245Y-101794792D01*
X65728241Y-101794798D01*
X65609346Y-101988817D01*
X65606760Y-101993037D01*
X65515895Y-102212406D01*
X65460465Y-102443289D01*
X65441835Y-102680000D01*
X65460465Y-102916711D01*
X65461619Y-102921518D01*
X65461620Y-102921524D01*
X65464596Y-102933919D01*
X65515895Y-103147594D01*
X65606760Y-103366963D01*
X65609346Y-103371183D01*
X65728241Y-103565202D01*
X65728245Y-103565208D01*
X65730824Y-103569416D01*
X65885031Y-103749969D01*
X65888787Y-103753177D01*
X65888792Y-103753182D01*
X66041616Y-103883706D01*
X66080426Y-103943156D01*
X66082640Y-103977558D01*
X66090877Y-103996667D01*
X66942188Y-104847978D01*
X66956132Y-104855592D01*
X66957965Y-104855461D01*
X66964580Y-104851210D01*
X67816080Y-103999710D01*
X67825260Y-103982898D01*
X67839020Y-103919650D01*
X67867776Y-103884225D01*
X68021213Y-103753177D01*
X68024969Y-103749969D01*
X68179176Y-103569416D01*
X68181755Y-103565208D01*
X68181759Y-103565202D01*
X68300654Y-103371183D01*
X68303240Y-103366963D01*
X68394105Y-103147594D01*
X68445404Y-102933919D01*
X68448380Y-102921524D01*
X68448381Y-102921518D01*
X68449535Y-102916711D01*
X68468165Y-102680000D01*
X68449535Y-102443289D01*
X68394105Y-102212406D01*
X68303240Y-101993037D01*
X68300654Y-101988817D01*
X68181759Y-101794798D01*
X68181755Y-101794792D01*
X68179176Y-101790584D01*
X68024969Y-101610031D01*
X68021213Y-101606823D01*
X68021208Y-101606818D01*
X67902944Y-101505811D01*
X67864134Y-101446361D01*
X67863628Y-101375366D01*
X67902944Y-101314189D01*
X68021208Y-101213182D01*
X68021213Y-101213177D01*
X68024969Y-101209969D01*
X68179176Y-101029416D01*
X68181755Y-101025208D01*
X68181759Y-101025202D01*
X68300654Y-100831183D01*
X68303240Y-100826963D01*
X68394105Y-100607594D01*
X68449535Y-100376711D01*
X68468165Y-100140000D01*
X68449535Y-99903289D01*
X68394105Y-99672406D01*
X68333462Y-99526000D01*
X68305135Y-99457611D01*
X68305133Y-99457607D01*
X68303240Y-99453037D01*
X68229265Y-99332321D01*
X68181759Y-99254798D01*
X68181755Y-99254792D01*
X68179176Y-99250584D01*
X68024969Y-99070031D01*
X68021213Y-99066823D01*
X68021208Y-99066818D01*
X67902944Y-98965811D01*
X67864134Y-98906361D01*
X67863628Y-98835366D01*
X67902944Y-98774189D01*
X68021208Y-98673182D01*
X68021213Y-98673177D01*
X68024969Y-98669969D01*
X68179176Y-98489416D01*
X68181755Y-98485208D01*
X68181759Y-98485202D01*
X68300654Y-98291183D01*
X68303240Y-98286963D01*
X68309838Y-98271036D01*
X68392211Y-98072167D01*
X68392212Y-98072165D01*
X68394105Y-98067594D01*
X68413360Y-97987391D01*
X68448380Y-97841524D01*
X68448381Y-97841518D01*
X68449535Y-97836711D01*
X68468165Y-97600000D01*
X68449535Y-97363289D01*
X68394105Y-97132406D01*
X68303240Y-96913037D01*
X68281086Y-96876885D01*
X68181759Y-96714798D01*
X68181755Y-96714792D01*
X68179176Y-96710584D01*
X68024969Y-96530031D01*
X68021213Y-96526823D01*
X68021208Y-96526818D01*
X67902944Y-96425811D01*
X67864134Y-96366361D01*
X67863628Y-96295366D01*
X67902944Y-96234189D01*
X68021208Y-96133182D01*
X68021213Y-96133177D01*
X68024969Y-96129969D01*
X68179176Y-95949416D01*
X68181755Y-95945208D01*
X68181759Y-95945202D01*
X68300654Y-95751183D01*
X68303240Y-95746963D01*
X68394105Y-95527594D01*
X68449535Y-95296711D01*
X68468165Y-95060000D01*
X68449535Y-94823289D01*
X68394105Y-94592406D01*
X68303240Y-94373037D01*
X68250162Y-94286422D01*
X68181759Y-94174798D01*
X68181755Y-94174792D01*
X68179176Y-94170584D01*
X68024969Y-93990031D01*
X68021213Y-93986823D01*
X68021208Y-93986818D01*
X67902944Y-93885811D01*
X67864134Y-93826361D01*
X67863628Y-93755366D01*
X67902944Y-93694189D01*
X68021208Y-93593182D01*
X68021213Y-93593177D01*
X68024969Y-93589969D01*
X68179176Y-93409416D01*
X68181755Y-93405208D01*
X68181759Y-93405202D01*
X68300654Y-93211183D01*
X68303240Y-93206963D01*
X68394105Y-92987594D01*
X68413360Y-92907391D01*
X68448380Y-92761524D01*
X68448381Y-92761518D01*
X68449535Y-92756711D01*
X68468165Y-92520000D01*
X68449535Y-92283289D01*
X68425322Y-92182432D01*
X68395693Y-92059020D01*
X68394105Y-92052406D01*
X68350218Y-91946453D01*
X68305135Y-91837611D01*
X68305133Y-91837607D01*
X68303240Y-91833037D01*
X68241951Y-91733023D01*
X68181759Y-91634798D01*
X68181755Y-91634792D01*
X68179176Y-91630584D01*
X68024969Y-91450031D01*
X68021213Y-91446823D01*
X68021208Y-91446818D01*
X67902944Y-91345811D01*
X67864134Y-91286361D01*
X67863628Y-91215366D01*
X67902944Y-91154189D01*
X68021208Y-91053182D01*
X68021213Y-91053177D01*
X68024969Y-91049969D01*
X68179176Y-90869416D01*
X68181755Y-90865208D01*
X68181759Y-90865202D01*
X68300654Y-90671183D01*
X68303240Y-90666963D01*
X68327549Y-90608277D01*
X68392211Y-90452167D01*
X68392212Y-90452165D01*
X68394105Y-90447594D01*
X68432618Y-90287176D01*
X68448380Y-90221524D01*
X68448381Y-90221518D01*
X68449535Y-90216711D01*
X68468165Y-89980000D01*
X68449535Y-89743289D01*
X68394105Y-89512406D01*
X68391461Y-89506023D01*
X68305135Y-89297611D01*
X68305133Y-89297607D01*
X68303240Y-89293037D01*
X68300654Y-89288817D01*
X68181759Y-89094798D01*
X68181755Y-89094792D01*
X68179176Y-89090584D01*
X68024969Y-88910031D01*
X68021213Y-88906823D01*
X68021208Y-88906818D01*
X67902944Y-88805811D01*
X67864134Y-88746361D01*
X67863628Y-88675366D01*
X67902944Y-88614189D01*
X68021208Y-88513182D01*
X68021213Y-88513177D01*
X68024969Y-88509969D01*
X68179176Y-88329416D01*
X68181755Y-88325208D01*
X68181759Y-88325202D01*
X68300654Y-88131183D01*
X68303240Y-88126963D01*
X68394105Y-87907594D01*
X68446262Y-87690346D01*
X68448380Y-87681524D01*
X68448381Y-87681518D01*
X68449535Y-87676711D01*
X68468165Y-87440000D01*
X68449535Y-87203289D01*
X68442298Y-87173141D01*
X68395260Y-86977218D01*
X68394105Y-86972406D01*
X68303240Y-86753037D01*
X68300654Y-86748817D01*
X68181759Y-86554798D01*
X68181755Y-86554792D01*
X68179176Y-86550584D01*
X68024969Y-86370031D01*
X68021213Y-86366823D01*
X68021208Y-86366818D01*
X67902944Y-86265811D01*
X67864134Y-86206361D01*
X67863628Y-86135366D01*
X67902944Y-86074189D01*
X68021208Y-85973182D01*
X68021213Y-85973177D01*
X68024969Y-85969969D01*
X68179176Y-85789416D01*
X68181755Y-85785208D01*
X68181759Y-85785202D01*
X68300654Y-85591183D01*
X68303240Y-85586963D01*
X68394105Y-85367594D01*
X68413360Y-85287391D01*
X68448380Y-85141524D01*
X68448381Y-85141518D01*
X68449535Y-85136711D01*
X68468165Y-84900000D01*
X68449535Y-84663289D01*
X68440806Y-84626927D01*
X68395260Y-84437218D01*
X68394105Y-84432406D01*
X68303240Y-84213037D01*
X68185697Y-84021225D01*
X68181759Y-84014798D01*
X68181755Y-84014792D01*
X68179176Y-84010584D01*
X68024969Y-83830031D01*
X68021213Y-83826823D01*
X68021208Y-83826818D01*
X67902944Y-83725811D01*
X67864134Y-83666361D01*
X67863628Y-83595366D01*
X67902944Y-83534189D01*
X68021208Y-83433182D01*
X68021213Y-83433177D01*
X68024969Y-83429969D01*
X68179176Y-83249416D01*
X68181755Y-83245208D01*
X68181759Y-83245202D01*
X68300654Y-83051183D01*
X68303240Y-83046963D01*
X68338246Y-82962452D01*
X68392211Y-82832167D01*
X68392212Y-82832165D01*
X68394105Y-82827594D01*
X68425607Y-82696379D01*
X68448380Y-82601524D01*
X68448381Y-82601518D01*
X68449535Y-82596711D01*
X68468165Y-82360000D01*
X68449535Y-82123289D01*
X68394105Y-81892406D01*
X68303240Y-81673037D01*
X68188412Y-81485655D01*
X68181759Y-81474798D01*
X68181755Y-81474792D01*
X68179176Y-81470584D01*
X68024969Y-81290031D01*
X68021213Y-81286823D01*
X68021208Y-81286818D01*
X67902944Y-81185811D01*
X67864134Y-81126361D01*
X67863628Y-81055366D01*
X67902944Y-80994189D01*
X68021208Y-80893182D01*
X68021213Y-80893177D01*
X68024969Y-80889969D01*
X68179176Y-80709416D01*
X68181755Y-80705208D01*
X68181759Y-80705202D01*
X68300654Y-80511183D01*
X68303240Y-80506963D01*
X68330014Y-80442326D01*
X68392211Y-80292167D01*
X68392212Y-80292165D01*
X68394105Y-80287594D01*
X68423042Y-80167062D01*
X68448380Y-80061524D01*
X68448381Y-80061518D01*
X68449535Y-80056711D01*
X68468165Y-79820000D01*
X68449535Y-79583289D01*
X68394105Y-79352406D01*
X68350218Y-79246453D01*
X68305135Y-79137611D01*
X68305133Y-79137607D01*
X68303240Y-79133037D01*
X68241951Y-79033023D01*
X68181759Y-78934798D01*
X68181755Y-78934792D01*
X68179176Y-78930584D01*
X68045968Y-78774618D01*
X68028177Y-78753787D01*
X68024969Y-78750031D01*
X68021213Y-78746823D01*
X68021208Y-78746818D01*
X67902944Y-78645811D01*
X67864134Y-78586361D01*
X67863628Y-78515366D01*
X67902944Y-78454189D01*
X68021208Y-78353182D01*
X68021213Y-78353177D01*
X68024969Y-78349969D01*
X68179176Y-78169416D01*
X68181755Y-78165208D01*
X68181759Y-78165202D01*
X68300654Y-77971183D01*
X68303240Y-77966963D01*
X68327549Y-77908277D01*
X68392211Y-77752167D01*
X68392212Y-77752165D01*
X68394105Y-77747594D01*
X68432033Y-77589612D01*
X68448380Y-77521524D01*
X68448381Y-77521518D01*
X68449535Y-77516711D01*
X68468165Y-77280000D01*
X68449535Y-77043289D01*
X68394105Y-76812406D01*
X68350218Y-76706453D01*
X68305135Y-76597611D01*
X68305133Y-76597607D01*
X68303240Y-76593037D01*
X68241951Y-76493023D01*
X68181759Y-76394798D01*
X68181755Y-76394792D01*
X68179176Y-76390584D01*
X68024969Y-76210031D01*
X68021213Y-76206823D01*
X68021208Y-76206818D01*
X67902944Y-76105811D01*
X67864134Y-76046361D01*
X67863628Y-75975366D01*
X67902944Y-75914189D01*
X68021208Y-75813182D01*
X68021213Y-75813177D01*
X68024969Y-75809969D01*
X68179176Y-75629416D01*
X68181755Y-75625208D01*
X68181759Y-75625202D01*
X68300654Y-75431183D01*
X68303240Y-75426963D01*
X68327549Y-75368277D01*
X68392211Y-75212167D01*
X68392212Y-75212165D01*
X68394105Y-75207594D01*
X68432033Y-75049612D01*
X68448380Y-74981524D01*
X68448381Y-74981518D01*
X68449535Y-74976711D01*
X68468165Y-74740000D01*
X68449535Y-74503289D01*
X68394105Y-74272406D01*
X68350218Y-74166453D01*
X68305135Y-74057611D01*
X68305133Y-74057607D01*
X68303240Y-74053037D01*
X68241951Y-73953023D01*
X68181759Y-73854798D01*
X68181755Y-73854792D01*
X68179176Y-73850584D01*
X68024969Y-73670031D01*
X68021213Y-73666823D01*
X68021208Y-73666818D01*
X67902944Y-73565811D01*
X67864134Y-73506361D01*
X67863628Y-73435366D01*
X67902944Y-73374189D01*
X68021208Y-73273182D01*
X68021213Y-73273177D01*
X68024969Y-73269969D01*
X68179176Y-73089416D01*
X68181755Y-73085208D01*
X68181759Y-73085202D01*
X68300654Y-72891183D01*
X68303240Y-72886963D01*
X68327549Y-72828277D01*
X68392211Y-72672167D01*
X68392212Y-72672165D01*
X68394105Y-72667594D01*
X68432033Y-72509612D01*
X68448380Y-72441524D01*
X68448381Y-72441518D01*
X68449535Y-72436711D01*
X68468165Y-72200000D01*
X68449535Y-71963289D01*
X68439236Y-71920388D01*
X68413360Y-71812609D01*
X68394105Y-71732406D01*
X68346167Y-71616672D01*
X68305135Y-71517611D01*
X68305133Y-71517607D01*
X68303240Y-71513037D01*
X68226596Y-71387966D01*
X68181759Y-71314798D01*
X68181755Y-71314792D01*
X68179176Y-71310584D01*
X68024969Y-71130031D01*
X67844416Y-70975824D01*
X67840196Y-70973238D01*
X67820974Y-70961458D01*
X67773343Y-70908810D01*
X67761737Y-70838768D01*
X67789841Y-70773571D01*
X67848732Y-70733918D01*
X67860608Y-70730780D01*
X67979970Y-70705409D01*
X67984099Y-70703906D01*
X67984103Y-70703905D01*
X68239781Y-70610846D01*
X68239785Y-70610844D01*
X68243926Y-70609337D01*
X68491942Y-70477464D01*
X68499822Y-70471739D01*
X68715629Y-70314947D01*
X68715632Y-70314944D01*
X68719192Y-70312358D01*
X68739315Y-70292926D01*
X68918087Y-70120287D01*
X68921252Y-70117231D01*
X69094188Y-69895882D01*
X69096384Y-69892078D01*
X69096389Y-69892071D01*
X69232435Y-69656431D01*
X69234636Y-69652619D01*
X69339862Y-69392176D01*
X69373544Y-69257087D01*
X69406753Y-69123893D01*
X69406754Y-69123888D01*
X69407817Y-69119624D01*
X69437178Y-68840267D01*
X69427375Y-68559542D01*
X69403608Y-68424749D01*
X69379360Y-68287236D01*
X69378598Y-68282913D01*
X69291797Y-68015765D01*
X69168660Y-67763298D01*
X69166205Y-67759659D01*
X69166202Y-67759653D01*
X69085935Y-67640653D01*
X69011585Y-67530424D01*
X68823629Y-67321678D01*
X68608450Y-67141121D01*
X68370236Y-66992269D01*
X68113625Y-66878018D01*
X67843610Y-66800593D01*
X67839260Y-66799982D01*
X67839257Y-66799981D01*
X67722328Y-66783548D01*
X67565448Y-66761500D01*
X67354854Y-66761500D01*
X67352668Y-66761653D01*
X67352664Y-66761653D01*
X67149173Y-66775882D01*
X67149168Y-66775883D01*
X67144788Y-66776189D01*
X66870030Y-66834591D01*
X66865901Y-66836094D01*
X66865897Y-66836095D01*
X66610219Y-66929154D01*
X66610215Y-66929156D01*
X66606074Y-66930663D01*
X66358058Y-67062536D01*
X66354499Y-67065122D01*
X66354497Y-67065123D01*
X66249895Y-67141121D01*
X66130808Y-67227642D01*
X65928748Y-67422769D01*
X65755812Y-67644118D01*
X65753616Y-67647922D01*
X65753611Y-67647929D01*
X65650575Y-67826393D01*
X65615364Y-67887381D01*
X65510138Y-68147824D01*
X65509073Y-68152097D01*
X65509072Y-68152099D01*
X65475379Y-68287236D01*
X65442183Y-68420376D01*
X65412822Y-68699733D01*
X63500000Y-68699733D01*
X63500000Y-66166000D01*
X63520002Y-66097879D01*
X63573658Y-66051386D01*
X63626000Y-66040000D01*
X70994000Y-66040000D01*
X71062121Y-66060002D01*
G37*
%TD.AperFunction*%
M02*
